<svg width="16" height="16" viewBox="0 0 16 16" fill="none" xmlns="http://www.w3.org/2000/svg">
<path d="M14.8215 2.66663C14.8215 3.86328 13.8516 4.83337 12.6549 4.83337C11.4583 4.83337 10.4883 3.86328 10.4883 2.66663C10.4883 1.47009 11.4583 0.5 12.6549 0.5C13.8516 0.5 14.8215 1.47009 14.8215 2.66663Z" fill="black"/>
<path d="M12.6549 5.33337C11.1842 5.33337 9.98828 4.13733 9.98828 2.66663C9.98828 1.19604 11.1842 0 12.6549 0C14.1256 0 15.3215 1.19604 15.3215 2.66663C15.3215 4.13733 14.1256 5.33337 12.6549 5.33337ZM12.6549 1C11.7356 1 10.9883 1.74805 10.9883 2.66663C10.9883 3.58533 11.7356 4.33337 12.6549 4.33337C13.5742 4.33337 14.3215 3.58533 14.3215 2.66663C14.3215 1.74805 13.5742 1 12.6549 1Z" fill="black"/>
<path d="M14.8215 13.3328C14.8215 14.5293 13.8516 15.4994 12.6549 15.4994C11.4583 15.4994 10.4883 14.5293 10.4883 13.3328C10.4883 12.1361 11.4583 11.166 12.6549 11.166C13.8516 11.166 14.8215 12.1361 14.8215 13.3328Z" fill="black"/>
<path d="M12.6549 15.9994C11.1842 15.9994 9.98828 14.8033 9.98828 13.3328C9.98828 11.8621 11.1842 10.666 12.6549 10.666C14.1256 10.666 15.3215 11.8621 15.3215 13.3328C15.3215 14.8033 14.1256 15.9994 12.6549 15.9994ZM12.6549 11.666C11.7356 11.666 10.9883 12.4141 10.9883 13.3328C10.9883 14.2513 11.7356 14.9994 12.6549 14.9994C13.5742 14.9994 14.3215 14.2513 14.3215 13.3328C14.3215 12.4141 13.5742 11.666 12.6549 11.666Z" fill="black"/>
<path d="M5.48962 8.00061C5.48962 9.19727 4.51953 10.1672 3.32288 10.1672C2.12634 10.1672 1.15625 9.19727 1.15625 8.00061C1.15625 6.80396 2.12634 5.83398 3.32288 5.83398C4.51953 5.83398 5.48962 6.80396 5.48962 8.00061Z" fill="black"/>
<path d="M3.32288 10.6672C1.85229 10.6672 0.65625 9.47131 0.65625 8.00061C0.65625 6.52991 1.85229 5.33398 3.32288 5.33398C4.79358 5.33398 5.98962 6.52991 5.98962 8.00061C5.98962 9.47131 4.79358 10.6672 3.32288 10.6672ZM3.32288 6.33398C2.40356 6.33398 1.65625 7.08191 1.65625 8.00061C1.65625 8.91931 2.40356 9.66724 3.32288 9.66724C4.24231 9.66724 4.98962 8.91931 4.98962 8.00061C4.98962 7.08191 4.24231 6.33398 3.32288 6.33398Z" fill="black"/>
<path d="M4.8978 7.68116C4.66574 7.68116 4.4404 7.56043 4.31772 7.34449C4.13572 7.02515 4.24778 6.61781 4.56711 6.43507L10.753 2.90845C11.0724 2.72511 11.4797 2.83717 11.6624 3.15772C11.8445 3.47706 11.7324 3.88441 11.4131 4.06715L5.22702 7.59376C5.12302 7.65308 5.00974 7.68116 4.8978 7.68116Z" fill="black"/>
<path d="M11.0824 13.181C10.9703 13.181 10.857 13.153 10.753 13.0936L4.56702 9.56702C4.24768 9.38501 4.13575 8.97766 4.31775 8.65759C4.49903 8.33764 4.90698 8.22497 5.22705 8.40832L11.4131 11.9349C11.7324 12.117 11.8443 12.5243 11.6623 12.8444C11.5391 13.0603 11.3137 13.181 11.0824 13.181Z" fill="black"/>
</svg>
