<svg width="16" height="14" viewBox="0 0 16 14" fill="none" xmlns="http://www.w3.org/2000/svg">
<path d="M0.280561 6.69926L3.95904 8.0709L5.39301 12.6846C5.45536 12.9963 5.82944 13.0586 6.07883 12.8716L8.13627 11.1882C8.32331 11.0012 8.63505 11.0012 8.88444 11.1882L12.5629 13.8692C12.8123 14.0562 13.1864 13.9315 13.2487 13.6198L15.992 0.526924C16.0543 0.21519 15.7426 -0.0965413 15.4309 0.0281524L0.280561 5.88876C-0.0935203 6.01345 -0.0935203 6.57457 0.280561 6.69926ZM5.20598 7.38508L12.4382 2.95845C12.5629 2.89611 12.6876 3.08315 12.5629 3.14549L6.63995 8.69437C6.45291 8.88141 6.26586 9.13079 6.26586 9.44253L6.07883 10.9389C6.07883 11.1259 5.76709 11.1882 5.70474 10.9389L4.95657 8.19559C4.76953 7.88385 4.89424 7.50977 5.20598 7.38508Z" fill="black"/>
</svg>
