<svg width="16" height="18" viewBox="0 0 16 18" fill="none" xmlns="http://www.w3.org/2000/svg">
<path d="M12.3839 0.415934C9.47993 -0.138645 6.46422 -0.138645 3.56021 0.415934C2.27574 0.693224 0.656196 2.24605 0.376963 3.46612C-0.125654 5.85081 -0.125654 8.29096 0.376963 10.6756C0.712042 11.8957 2.33159 13.4485 3.56021 13.7258C3.61605 13.7258 3.6719 13.7813 3.6719 13.8367V17.3306C3.6719 17.497 3.89529 17.6079 4.00698 17.4415L5.68237 15.7223C5.68237 15.7223 7.02269 14.3359 7.24607 14.114C7.24607 14.114 7.30192 14.0586 7.35777 14.0586C9.03316 14.114 10.7644 13.9477 12.4398 13.6704C13.7243 13.3931 15.3438 11.8403 15.623 10.6202C16.1257 8.2355 16.1257 5.79535 15.623 3.41066C15.288 2.24604 13.6684 0.693224 12.3839 0.415934ZM12.4398 10.842C12.1606 11.3966 11.8255 11.8403 11.267 12.1176C11.0995 12.173 10.9319 12.2285 10.7644 12.2839C10.541 12.2285 10.3735 12.173 10.2059 12.1176C8.41885 11.3966 6.74346 10.3984 5.40314 8.95645C4.67714 8.12458 4.06283 7.1818 3.56021 6.18356C3.33682 5.68443 3.11344 5.24077 2.9459 4.74165C2.77836 4.29799 3.05759 3.85432 3.33682 3.52158C3.61605 3.18883 3.95113 2.967 4.34206 2.80062C4.62129 2.63425 4.90052 2.74517 5.12391 2.967C5.57068 3.52158 6.01745 4.07616 6.35253 4.68619C6.57592 5.0744 6.52007 5.51806 6.12914 5.79535C6.01745 5.85081 5.9616 5.90627 5.84991 6.01718C5.79406 6.07264 5.68237 6.1281 5.62652 6.23901C5.51483 6.40539 5.51483 6.57176 5.57068 6.73813C6.01745 8.01367 6.85515 9.01191 8.13961 9.56649C8.363 9.6774 8.53054 9.73286 8.80977 9.73286C9.2007 9.6774 9.36824 9.23374 9.64747 9.01191C9.9267 8.79008 10.2618 8.79008 10.5969 8.95645C10.8761 9.12282 11.1553 9.34466 11.4904 9.56649C11.7696 9.78832 12.0489 9.95469 12.3281 10.1765C12.4956 10.2874 12.5515 10.5647 12.4398 10.842ZM10.0942 6.68268C9.98254 6.68268 10.0384 6.68268 10.0942 6.68268C9.87085 6.68268 9.81501 6.57176 9.75916 6.40539C9.75916 6.29447 9.75916 6.1281 9.70331 6.01718C9.64747 5.79535 9.53578 5.57352 9.31239 5.40715C9.2007 5.35169 9.089 5.29623 8.97731 5.24077C8.80977 5.18531 8.69808 5.18531 8.53054 5.18531C8.363 5.12986 8.30715 5.01894 8.30715 4.85257C8.30715 4.74165 8.47469 4.63073 8.58639 4.63073C9.47993 4.68619 10.1501 5.18531 10.2618 6.23901C10.2618 6.29447 10.2618 6.40539 10.2618 6.46085C10.2618 6.57176 10.2059 6.68268 10.0942 6.68268ZM9.53577 4.24253C9.25654 4.13161 8.97731 4.0207 8.64223 3.96524C8.53054 3.96524 8.363 3.90978 8.25131 3.90978C8.08377 3.90978 7.97208 3.79887 8.02792 3.63249C8.02792 3.46612 8.13962 3.3552 8.30715 3.41066C8.86562 3.46612 9.36824 3.57703 9.87086 3.79887C10.8761 4.29799 11.4346 5.12985 11.6021 6.23901C11.6021 6.29447 11.6021 6.34993 11.6021 6.40539C11.6021 6.5163 11.6021 6.62722 11.6021 6.79359C11.6021 6.84905 11.6021 6.90451 11.6021 6.95997C11.5462 7.1818 11.1553 7.23726 11.0995 6.95997C11.0995 6.90451 11.0436 6.79359 11.0436 6.73813C11.0436 6.23901 10.9319 5.73989 10.7086 5.29623C10.3735 4.79711 9.98254 4.46436 9.53577 4.24253ZM12.5515 7.57C12.3839 7.57 12.2723 7.40363 12.2723 7.23726C12.2723 6.90451 12.2164 6.57176 12.1606 6.23901C11.9372 4.46436 10.4852 3.02245 8.75393 2.74517C8.4747 2.68971 8.19546 2.68971 7.97208 2.63425C7.80454 2.63425 7.58115 2.63425 7.5253 2.41242C7.46946 2.24605 7.637 2.07967 7.80454 2.07967C7.86038 2.07967 7.91623 2.07967 7.91623 2.07967C10.2059 2.13513 8.02792 2.07967 7.91623 2.07967C10.2618 2.13513 12.2164 3.68795 12.6073 6.01718C12.6632 6.40539 12.719 6.79359 12.719 7.23726C12.8307 7.40363 12.719 7.57 12.5515 7.57Z" fill="black"/>
</svg>
