<svg width="136" height="44" viewBox="0 0 136 44" fill="none" xmlns="http://www.w3.org/2000/svg">
<path d="M0 2C0 0.895431 0.895431 0 2 0H134C135.105 0 136 0.895431 136 2V42C136 43.1046 135.105 44 134 44H2C0.895432 44 0 43.1046 0 42V2Z" fill="#1C1C1E"/>
<path d="M36.1074 26.9421C35.2923 26.9421 34.6293 26.2786 34.6293 25.4636C34.6293 24.6485 35.2923 23.9855 36.1074 23.9855C36.9225 23.9855 37.5855 24.6485 37.5855 25.4636C37.5855 26.2786 36.9225 26.9421 36.1074 26.9421ZM19.7694 26.9421C18.9543 26.9421 18.2913 26.2786 18.2913 25.4636C18.2913 24.6485 18.9543 23.9855 19.7694 23.9855C20.5845 23.9855 21.2475 24.6485 21.2475 25.4636C21.2475 26.2786 20.5845 26.9421 19.7694 26.9421ZM36.6375 18.0382L39.5918 12.9217C39.7611 12.6277 39.6604 12.252 39.3668 12.0822C39.0732 11.9128 38.697 12.0136 38.5272 12.3072L35.536 17.4884C33.2486 16.4445 30.6797 15.863 27.9384 15.863C25.1972 15.863 22.6282 16.4445 20.3408 17.4884L17.3496 12.3072C17.1798 12.0136 16.8037 11.9128 16.5101 12.0822C16.2165 12.252 16.1152 12.6277 16.2851 12.9217L19.2393 18.0382C14.1665 20.7971 10.6971 25.9327 10.1895 32H45.6873C45.1793 25.9327 41.7098 20.7971 36.6375 18.0382Z" fill="#3DDB85"/>
<path d="M53.6875 9.375V14.975H55.9115C57.6635 14.975 58.8195 13.863 58.8195 12.175C58.8195 10.487 57.6635 9.375 55.9115 9.375H53.6875ZM55.9115 10.231C57.2275 10.231 57.8715 11.035 57.8715 12.175C57.8715 13.303 57.2275 14.119 55.9115 14.119H54.5915V10.231H55.9115Z" fill="white"/>
<path d="M62.807 9.27148C61.087 9.27148 59.875 10.5035 59.875 12.1755C59.875 13.8475 61.087 15.0795 62.807 15.0795C64.527 15.0795 65.739 13.8475 65.739 12.1755C65.739 10.5035 64.527 9.27148 62.807 9.27148ZM62.807 10.1395C63.951 10.1395 64.791 10.9675 64.791 12.1755C64.791 13.3835 63.951 14.2115 62.807 14.2115C61.663 14.2115 60.823 13.3835 60.823 12.1755C60.823 10.9675 61.663 10.1395 62.807 10.1395Z" fill="white"/>
<path d="M74.7813 9.375H73.8533L72.5173 13.931L71.1373 9.375H70.1093L68.7253 13.931L67.3933 9.375H66.4453L68.1533 14.975H69.2733L70.6133 10.603L71.9533 14.975H73.0733L74.7813 9.375Z" fill="white"/>
<path d="M80.7191 9.375H79.8151V13.427L76.6871 9.375H75.8711V14.975H76.7751L76.7791 10.923L79.9031 14.975H80.7191V9.375Z" fill="white"/>
<path d="M86.381 14.119H83.281V9.375H82.377V14.975H86.381V14.119Z" fill="white"/>
<path d="M89.8148 9.27148C88.0948 9.27148 86.8828 10.5035 86.8828 12.1755C86.8828 13.8475 88.0948 15.0795 89.8148 15.0795C91.5348 15.0795 92.7468 13.8475 92.7468 12.1755C92.7468 10.5035 91.5348 9.27148 89.8148 9.27148ZM89.8148 10.1395C90.9588 10.1395 91.7988 10.9675 91.7988 12.1755C91.7988 13.3835 90.9588 14.2115 89.8148 14.2115C88.6708 14.2115 87.8308 13.3835 87.8308 12.1755C87.8308 10.9675 88.6708 10.1395 89.8148 10.1395Z" fill="white"/>
<path d="M96.6447 9.375H95.5167L93.3047 14.975H94.2447L94.7967 13.547H97.3327L97.8847 14.975H98.8567L96.6447 9.375ZM96.0647 10.275L97.0007 12.691H95.1287L96.0647 10.275Z" fill="white"/>
<path d="M99.8711 9.375V14.975H102.095C103.847 14.975 105.003 13.863 105.003 12.175C105.003 10.487 103.847 9.375 102.095 9.375H99.8711ZM102.095 10.231C103.411 10.231 104.055 11.035 104.055 12.175C104.055 13.303 103.411 14.119 102.095 14.119H100.775V10.231H102.095Z" fill="white"/>
<path d="M111.201 9.375H110.073L107.861 14.975H108.801L109.353 13.547H111.889L112.441 14.975H113.413L111.201 9.375ZM110.621 10.275L111.557 12.691H109.685L110.621 10.275Z" fill="white"/>
<path d="M116.602 12.775C117.894 12.775 118.586 12.123 118.586 11.075C118.586 10.027 117.894 9.375 116.602 9.375H114.43V14.975H115.334V12.775H116.602ZM116.578 10.227C117.31 10.227 117.646 10.499 117.646 11.075C117.646 11.651 117.31 11.923 116.578 11.923H115.334V10.227H116.578Z" fill="white"/>
<path d="M123.537 14.975H124.765L122.073 12.107L124.593 9.375H123.425L121.321 11.731H120.769V9.375H119.865V14.975H120.769V12.587H121.309L123.537 14.975Z" fill="white"/>
<path d="M63.5775 24.9004H61.4875V26.0604C60.8275 25.2104 59.8375 24.6504 58.4775 24.6504C55.7975 24.6504 53.6875 26.7604 53.6875 29.6904C53.6875 32.6204 55.7975 34.7304 58.4775 34.7304C59.8375 34.7304 60.8275 34.1804 61.4875 33.3304V34.4804H63.5775V24.9004ZM58.7275 26.6204C60.4575 26.6204 61.6175 27.9404 61.6175 29.6904C61.6175 31.4404 60.4575 32.7604 58.7275 32.7604C56.9275 32.7604 55.8375 31.3704 55.8375 29.6904C55.8375 28.0104 56.9275 26.6204 58.7275 26.6204Z" fill="white"/>
<path d="M71.6782 24.6484C70.6982 24.6484 69.5082 24.9384 68.7382 26.0684V24.8984H66.6582V34.4784H68.7582V29.1684C68.7582 27.5284 69.8882 26.6384 71.2382 26.6384C72.6382 26.6384 73.4682 27.5384 73.4682 29.1484V34.4784H75.5682V28.4584C75.5682 26.2184 73.9582 24.6484 71.6782 24.6484Z" fill="white"/>
<path d="M82.6474 24.6501C79.9674 24.6501 77.8574 26.7601 77.8574 29.6901C77.8574 32.6201 79.9674 34.7301 82.6474 34.7301C84.0074 34.7301 84.9974 34.1801 85.6574 33.3301V34.4801H87.7474V20.0801H85.6574V26.0601C84.9974 25.2101 84.0074 24.6501 82.6474 24.6501ZM82.8974 26.6201C84.6274 26.6201 85.7874 27.9401 85.7874 29.6901C85.7874 31.4401 84.6274 32.7601 82.8974 32.7601C81.0974 32.7601 80.0074 31.3701 80.0074 29.6901C80.0074 28.0101 81.0974 26.6201 82.8974 26.6201Z" fill="white"/>
<path d="M95.6781 24.6484C94.5081 24.6484 93.5281 25.0684 92.8981 25.9784V24.8984H90.8281V34.4784H92.9181V29.2084C92.9181 27.5784 93.8681 26.6384 95.1981 26.6384C95.7081 26.6384 96.3481 26.7584 96.7881 26.9884L97.2881 24.9184C96.8081 24.7284 96.3181 24.6484 95.6781 24.6484Z" fill="white"/>
<path d="M103.291 24.6484C100.331 24.6484 98.1406 26.8184 98.1406 29.6884C98.1406 32.5584 100.331 34.7284 103.291 34.7284C106.251 34.7284 108.451 32.5584 108.451 29.6884C108.451 26.8184 106.251 24.6484 103.291 24.6484ZM103.291 26.6184C105.001 26.6184 106.301 27.8784 106.301 29.6884C106.301 31.4984 105.001 32.7584 103.291 32.7584C101.581 32.7584 100.291 31.4984 100.291 29.6884C100.291 27.8784 101.581 26.6184 103.291 26.6184Z" fill="white"/>
<path d="M112.938 24.8994H110.838V34.4794H112.938V24.8994ZM111.878 20.1094C111.048 20.1094 110.418 20.7594 110.418 21.5894C110.418 22.4194 111.048 23.0494 111.878 23.0494C112.708 23.0494 113.358 22.4194 113.358 21.5894C113.358 20.7594 112.708 20.1094 111.878 20.1094Z" fill="white"/>
<path d="M120.11 24.6501C117.43 24.6501 115.32 26.7601 115.32 29.6901C115.32 32.6201 117.43 34.7301 120.11 34.7301C121.47 34.7301 122.46 34.1801 123.12 33.3301V34.4801H125.21V20.0801H123.12V26.0601C122.46 25.2101 121.47 24.6501 120.11 24.6501ZM120.36 26.6201C122.09 26.6201 123.25 27.9401 123.25 29.6901C123.25 31.4401 122.09 32.7601 120.36 32.7601C118.56 32.7601 117.47 31.3701 117.47 29.6901C117.47 28.0101 118.56 26.6201 120.36 26.6201Z" fill="white"/>
</svg>
