<svg width="135" height="44" viewBox="0 0 135 44" fill="none" xmlns="http://www.w3.org/2000/svg">
<path d="M0 2C0 0.895431 0.895431 0 2 0H133C134.105 0 135 0.895431 135 2V42C135 43.1046 134.105 44 133 44H2C0.895428 44 0 43.1046 0 42V2Z" fill="#1C1C1E"/>
<path d="M47.4174 12.2451C47.4174 13.0831 47.1694 13.7501 46.6724 14.2481C46.1074 14.8391 45.3725 15.1351 44.4685 15.1351C43.6025 15.1351 42.8655 14.8351 42.2605 14.2351C41.6535 13.6341 41.3516 12.8901 41.3516 12.0012C41.3516 11.1132 41.6535 10.3692 42.2605 9.76817C42.8655 9.16719 43.6025 8.86719 44.4685 8.86719C44.8975 8.86719 45.3095 8.95119 45.6994 9.11919C46.0904 9.28718 46.4034 9.51018 46.6384 9.78917L46.1104 10.3172C45.7134 9.84217 45.1665 9.60517 44.4685 9.60517C43.8365 9.60517 43.2905 9.82717 42.8295 10.2712C42.3685 10.7152 42.1385 11.2922 42.1385 12.0012C42.1385 12.7111 42.3685 13.2881 42.8295 13.7321C43.2905 14.1761 43.8365 14.3981 44.4685 14.3981C45.1385 14.3981 45.6964 14.1751 46.1444 13.7281C46.4344 13.4371 46.6024 13.0321 46.6464 12.5131H44.4685V11.7922H47.3754C47.4034 11.9492 47.4174 12.0992 47.4174 12.2451Z" fill="white"/>
<path d="M47.4158 12.2436H47.3158C47.3148 13.0626 47.0758 13.6975 46.5998 14.1755L46.5988 14.1765V14.1775C46.0519 14.7485 45.3499 15.0325 44.4669 15.0335C43.6239 15.0325 42.9179 14.7455 42.329 14.1625C41.741 13.5785 41.451 12.8656 41.45 11.9996C41.451 11.1336 41.741 10.4216 42.329 9.8376C42.9179 9.25462 43.6239 8.96662 44.4669 8.96562C44.8829 8.96562 45.2799 9.04662 45.6589 9.20962C46.0379 9.37261 46.3369 9.58661 46.5598 9.8516L46.6368 9.7876L46.5658 9.71661L46.0389 10.2446L46.1089 10.3156L46.1859 10.2516C45.7699 9.75261 45.1869 9.50161 44.4669 9.50361C43.8109 9.50261 43.2349 9.7366 42.7589 10.1976C42.277 10.6606 42.036 11.2696 42.037 11.9996C42.036 12.7306 42.277 13.3395 42.7589 13.8025C43.2349 14.2635 43.8109 14.4975 44.4669 14.4965C45.1589 14.4975 45.7489 14.2625 46.2129 13.7975C46.5228 13.4865 46.6988 13.0556 46.7448 12.5196L46.7548 12.4116H44.5669V11.8906H47.3738V11.7906L47.2758 11.8086C47.3028 11.9596 47.3158 12.1036 47.3158 12.2436H47.5158C47.5158 12.0916 47.5018 11.9346 47.4718 11.7726L47.4578 11.6906H44.3669V12.6116H46.6448V12.5116L46.5458 12.5026C46.5018 13.0056 46.3419 13.3845 46.0719 13.6555C45.6419 14.0835 45.1149 14.2955 44.4669 14.2965C43.8579 14.2955 43.3429 14.0865 42.8979 13.6585C42.4569 13.2325 42.238 12.6886 42.237 11.9996C42.238 11.3116 42.4569 10.7676 42.8979 10.3416C43.3429 9.9136 43.8579 9.70461 44.4669 9.70361C45.1429 9.70461 45.6529 9.9286 46.0329 10.3796L46.1029 10.4636L46.7068 9.8586L46.7718 9.7936L46.7128 9.72361C46.4668 9.43061 46.1399 9.19862 45.7379 9.02562C45.3349 8.85263 44.9089 8.76563 44.4669 8.76563C43.5769 8.76463 42.8099 9.07762 42.188 9.69561C41.564 10.3126 41.249 11.0886 41.25 11.9996C41.249 12.9106 41.564 13.6865 42.188 14.3045C42.8099 14.9225 43.5779 15.2345 44.4669 15.2335C45.3919 15.2345 46.1609 14.9275 46.7428 14.3155L46.6708 14.2465L46.7418 14.3165C47.2598 13.7995 47.5168 13.0996 47.5158 12.2436H47.4158Z" fill="white"/>
<path d="M52.0263 9.73798H49.2943V11.6399H51.7583V12.3609H49.2943V14.2628H52.0263V14.9998H48.5234V9H52.0263V9.73798Z" fill="white"/>
<path d="M52.0248 9.73837V9.63837H49.1929V11.7403H51.6568V12.2613H49.1929V14.3632H51.9248V14.9002H48.6219V9.10038H51.9248V9.73837H52.0248V9.63837V9.73837H52.1248V9.00039V8.90039H48.4219V15.1002H52.1248V14.2632V14.1632H49.3929V12.4613H51.8568V11.6403V11.5403H49.3929V9.83836H52.1248V9.73837H52.0248Z" fill="white"/>
<path d="M55.277 14.9998H54.506V9.73798H52.8301V9H56.953V9.73798H55.277V14.9998Z" fill="white"/>
<path d="M55.2774 15.0002V14.9002H54.6064V9.63837H52.9305V9.10038H56.8534V9.63837H55.1774V15.0002H55.2774V14.9002V15.0002H55.3774V9.83836H57.0534V9.00039V8.90039H52.7305V9.83836H54.4064V15.1002H55.3774V15.0002H55.2774Z" fill="white"/>
<path d="M59.9359 15.1002H60.8059V8.90039H59.9359H59.8359V15.1002H59.9359Z" fill="white"/>
<path d="M64.1267 14.9998H63.3547V9.73798H61.6797V9H65.8026V9.73798H64.1267V14.9998Z" fill="white"/>
<path d="M64.125 15.0002V14.9002H63.453V9.63837H61.7781V9.10038H65.701V9.63837H64.025V15.0002H64.125V14.9002V15.0002H64.225V9.83836H65.901V9.00039V8.90039H61.5781V9.83836H63.253V15.1002H64.225V15.0002H64.125Z" fill="white"/>
<path d="M69.7771 13.7241C70.2211 14.1731 70.7641 14.3981 71.4071 14.3981C72.0491 14.3981 72.5931 14.1731 73.0371 13.7241C73.4811 13.2741 73.704 12.7001 73.704 12.0012C73.704 11.3032 73.4811 10.7292 73.0371 10.2792C72.5931 9.83017 72.0491 9.60517 71.4071 9.60517C70.7641 9.60517 70.2211 9.83017 69.7771 10.2792C69.3332 10.7292 69.1112 11.3032 69.1112 12.0012C69.1112 12.7001 69.3332 13.2741 69.7771 13.7241ZM73.6071 14.2261C73.0171 14.8331 72.2841 15.1351 71.4071 15.1351C70.5301 15.1351 69.7961 14.8331 69.2082 14.2261C68.6182 13.6201 68.3242 12.8781 68.3242 12.0012C68.3242 11.1242 68.6182 10.3832 69.2082 9.77717C69.7961 9.17019 70.5301 8.86719 71.4071 8.86719C72.2791 8.86719 73.0101 9.17219 73.603 9.78117C74.195 10.3902 74.491 11.1302 74.491 12.0012C74.491 12.8781 74.196 13.6201 73.6071 14.2261Z" fill="white"/>
<path d="M69.7776 13.7225L69.7066 13.7925C70.1666 14.2605 70.7415 14.4975 71.4075 14.4965C72.0735 14.4975 72.6485 14.2605 73.1085 13.7925C73.5715 13.3245 73.8055 12.7196 73.8045 11.9996C73.8055 11.2806 73.5715 10.6756 73.1085 10.2076C72.6485 9.7396 72.0735 9.50261 71.4075 9.50361C70.7415 9.50261 70.1666 9.7396 69.7066 10.2076C69.2436 10.6756 69.0106 11.2806 69.0116 11.9996C69.0106 12.7196 69.2436 13.3245 69.7066 13.7925L69.7776 13.7225L69.8486 13.6515C69.4246 13.2205 69.2126 12.6776 69.2116 11.9996C69.2126 11.3226 69.4246 10.7796 69.8486 10.3476V10.3486C70.2766 9.9166 70.7875 9.70461 71.4075 9.70361C72.0265 9.70461 72.5385 9.9166 72.9655 10.3476V10.3486C73.3915 10.7796 73.6035 11.3226 73.6045 11.9996C73.6035 12.6776 73.3915 13.2205 72.9655 13.6515C72.5385 14.0835 72.0265 14.2955 71.4075 14.2965C70.7875 14.2955 70.2766 14.0835 69.8486 13.6515L69.7776 13.7225ZM73.6075 14.2245L73.5355 14.1545C72.9625 14.7425 72.2615 15.0325 71.4075 15.0335C70.5535 15.0325 69.8516 14.7425 69.2796 14.1545L69.2766 14.1525L69.2796 14.1545C68.7076 13.5655 68.4256 12.8546 68.4246 11.9996C68.4256 11.1456 68.7076 10.4346 69.2796 9.8456C69.8516 9.25762 70.5535 8.96662 71.4075 8.96562C72.2565 8.96662 72.9555 9.25862 73.5315 9.8496C74.1065 10.4416 74.3905 11.1506 74.3915 11.9996C74.3905 12.8546 74.1065 13.5655 73.5355 14.1545L73.6795 14.2945C74.2855 13.6715 74.5924 12.8996 74.5914 11.9996C74.5924 11.1056 74.2845 10.3356 73.6755 9.70961C73.0655 9.08262 72.3025 8.76463 71.4075 8.76563C70.5075 8.76463 69.7416 9.08062 69.1366 9.70561C68.5286 10.3286 68.2236 11.1006 68.2246 11.9996C68.2236 12.8996 68.5286 13.6715 69.1366 14.2945L69.1396 14.2975L69.1366 14.2945C69.7416 14.9195 70.5075 15.2345 71.4075 15.2335C72.3075 15.2345 73.0725 14.9195 73.6795 14.2945L73.6075 14.2245Z" fill="white"/>
<path d="M75.5742 14.9998V9H76.5122L79.4281 13.6678H79.4611L79.4281 12.5119V9H80.2001V14.9998H79.3951L76.3442 10.1069H76.3112L76.3442 11.2629V14.9998H75.5742Z" fill="white"/>
<path d="M75.5727 15.0002H75.6727V9.10038H76.4557L79.3716 13.7682H79.5626L79.5266 12.5103V9.10038H80.0986V14.9002H79.4496L76.3987 10.0073H76.3097H76.2067L76.2427 11.2653V14.9002H75.5727V15.0002H75.6727H75.5727V15.1002H76.4427V11.2623L76.4097 10.1043L76.3097 10.1073V10.2073H76.3427V10.1073L76.2577 10.1603L79.3386 15.1002H80.2986V8.90039H79.4266H79.3266V12.5133L79.3596 13.6712L79.4596 13.6682V13.5683H79.4266V13.6682L79.5116 13.6153L76.5667 8.90039H75.5727H75.4727V15.1002H75.5727V15.0002Z" fill="white"/>
<path d="M106.932 32.0015H108.798V19.4998H106.932V32.0015ZM123.739 24.0027L121.6 29.4225H121.536L119.316 24.0027H117.306L120.635 31.5785L118.737 35.7914H120.684L125.814 24.0027H123.739ZM113.157 30.5805C112.545 30.5805 111.693 30.2755 111.693 29.5195C111.693 28.5546 112.755 28.1846 113.671 28.1846C114.492 28.1846 114.877 28.3616 115.376 28.6026C115.231 29.7605 114.234 30.5805 113.157 30.5805ZM113.382 23.7297C112.031 23.7297 110.632 24.3247 110.053 25.6436L111.709 26.3356C112.063 25.6436 112.722 25.4186 113.414 25.4186C114.379 25.4186 115.36 25.9976 115.376 27.0266V27.1556C115.038 26.9626 114.315 26.6726 113.43 26.6726C111.645 26.6726 109.827 27.6536 109.827 29.4875C109.827 31.1595 111.291 32.2375 112.931 32.2375C114.186 32.2375 114.877 31.6745 115.312 31.0155H115.376V31.9805H117.177V27.1876C117.177 24.9676 115.521 23.7297 113.382 23.7297ZM101.85 25.5246H99.1966V21.2397H101.85C103.245 21.2397 104.037 22.3947 104.037 23.3827C104.037 24.3517 103.245 25.5246 101.85 25.5246ZM101.802 19.4998H97.3317V32.0015H99.1966V27.2646H101.802C103.87 27.2646 105.903 25.7676 105.903 23.3827C105.903 20.9967 103.87 19.4998 101.802 19.4998ZM77.4212 30.5835C76.1332 30.5835 75.0532 29.5035 75.0532 28.0216C75.0532 26.5236 76.1332 25.4286 77.4212 25.4286C78.6941 25.4286 79.6931 26.5236 79.6931 28.0216C79.6931 29.5035 78.6941 30.5835 77.4212 30.5835ZM79.5641 24.7037H79.5001C79.0811 24.2037 78.2751 23.7527 77.2602 23.7527C75.1342 23.7527 73.1843 25.6216 73.1843 28.0216C73.1843 30.4065 75.1342 32.2585 77.2602 32.2585C78.2751 32.2585 79.0811 31.8075 79.5001 31.2925H79.5641V31.9045C79.5641 33.5314 78.6941 34.4014 77.2922 34.4014C76.1492 34.4014 75.4402 33.5794 75.1502 32.8875L73.5233 33.5634C73.9902 34.6914 75.2302 36.0774 77.2922 36.0774C79.4841 36.0774 81.3361 34.7884 81.3361 31.6465V24.0107H79.5641V24.7037ZM82.625 32.0015H84.494V19.4998H82.625V32.0015ZM87.2489 27.8766C87.1999 26.2336 88.5219 25.3956 89.4719 25.3956C90.2138 25.3956 90.8418 25.7666 91.0508 26.2986L87.2489 27.8766ZM93.0488 26.4596C92.6948 25.5086 91.6148 23.7527 89.4079 23.7527C87.2169 23.7527 85.396 25.4766 85.396 28.0056C85.396 30.3905 87.1999 32.2585 89.6169 32.2585C91.5668 32.2585 92.6948 31.0665 93.1618 30.3735L91.7118 29.4075C91.2288 30.1165 90.5678 30.5835 89.6169 30.5835C88.6659 30.5835 87.9899 30.1485 87.5549 29.2945L93.2418 26.9426L93.0488 26.4596ZM47.7409 25.0576V26.8616H52.0588C51.9298 27.8766 51.5918 28.6176 51.0758 29.1335C50.4478 29.7615 49.4649 30.4545 47.7409 30.4545C45.083 30.4545 43.005 28.3116 43.005 25.6536C43.005 22.9957 45.083 20.8528 47.7409 20.8528C49.1749 20.8528 50.2218 21.4167 50.9958 22.1417L52.2678 20.8688C51.1888 19.8378 49.7549 19.0488 47.7409 19.0488C44.1 19.0488 41.0391 22.0127 41.0391 25.6536C41.0391 29.2945 44.1 32.2585 47.7409 32.2585C49.7069 32.2585 51.1888 31.6145 52.3488 30.4065C53.5408 29.2135 53.9118 27.5386 53.9118 26.1856C53.9118 25.7666 53.8788 25.3796 53.8148 25.0576H47.7409ZM58.8196 30.5835C57.5307 30.5835 56.4197 29.5205 56.4197 28.0056C56.4197 26.4756 57.5307 25.4286 58.8196 25.4286C60.1086 25.4286 61.2196 26.4756 61.2196 28.0056C61.2196 29.5205 60.1086 30.5835 58.8196 30.5835ZM58.8196 23.7527C56.4677 23.7527 54.5507 25.5406 54.5507 28.0056C54.5507 30.4545 56.4677 32.2585 58.8196 32.2585C61.1716 32.2585 63.0885 30.4545 63.0885 28.0056C63.0885 25.5406 61.1716 23.7527 58.8196 23.7527ZM68.1324 30.5835C66.8444 30.5835 65.7325 29.5205 65.7325 28.0056C65.7325 26.4756 66.8444 25.4286 68.1324 25.4286C69.4214 25.4286 70.5333 26.4756 70.5333 28.0056C70.5333 29.5205 69.4214 30.5835 68.1324 30.5835ZM68.1324 23.7527C65.7805 23.7527 63.8635 25.5406 63.8635 28.0056C63.8635 30.4545 65.7805 32.2585 68.1324 32.2585C70.4853 32.2585 72.4023 30.4545 72.4023 28.0056C72.4023 25.5406 70.4853 23.7527 68.1324 23.7527Z" fill="white"/>
<path fill-rule="evenodd" clip-rule="evenodd" d="M10.5096 34.3907L10.4356 34.3197C10.1446 34.0117 9.97266 33.5337 9.97266 32.9147V33.0597V10.9443C9.97266 10.9433 9.97266 10.9413 9.97266 10.9393V11.0913C9.97266 10.4213 10.1736 9.91528 10.5086 9.61328L22.8983 22.002L10.5096 34.3907ZM9.97266 10.9383C9.97266 10.8833 9.97466 10.8293 9.97666 10.7773C9.97466 10.8293 9.97266 10.8833 9.97266 10.9383Z" fill="url(#paint0_linear_0_10101)"/>
<path fill-rule="evenodd" clip-rule="evenodd" d="M27.0254 26.2789L27.1194 26.2249L32.0123 23.445C32.4793 23.18 32.7903 22.859 32.9453 22.518C32.7903 22.859 32.4793 23.18 32.0123 23.446L27.1194 26.2259L27.0254 26.2789ZM27.0264 26.1319L22.8965 22.001L27.0264 17.8711L32.0123 20.704C32.6463 21.063 33.0013 21.527 33.0603 22.001C33.0603 22.001 33.0603 22.002 33.0603 22.003C33.0013 22.475 32.6463 22.939 32.0123 23.299L27.0264 26.1319Z" fill="url(#paint1_linear_0_10101)"/>
<path fill-rule="evenodd" clip-rule="evenodd" d="M11.3908 34.8607C11.0448 34.8607 10.7438 34.7477 10.5078 34.5357V34.5347C10.7438 34.7477 11.0458 34.8607 11.3918 34.8607C11.4218 34.8607 11.4528 34.8597 11.4838 34.8577C11.4528 34.8597 11.4218 34.8607 11.3908 34.8607ZM11.3918 34.7137C11.0458 34.7147 10.7438 34.6017 10.5078 34.3887L22.8965 22L27.0264 26.1309L12.5118 34.3787C12.1108 34.6067 11.7298 34.7137 11.3918 34.7137Z" fill="url(#paint2_linear_0_10101)"/>
<path fill-rule="evenodd" clip-rule="evenodd" d="M22.8974 22.0003L10.5078 9.6116C10.7437 9.39961 11.0447 9.28661 11.3907 9.28661C11.7297 9.28661 12.1107 9.39461 12.5127 9.6236L27.0273 17.8704L22.8974 22.0003ZM27.1203 17.7774L12.5127 9.47761C12.1107 9.24861 11.7297 9.14062 11.3907 9.14062C11.3897 9.14062 11.3877 9.14062 11.3867 9.14062C11.3877 9.14062 11.3897 9.14062 11.3917 9.14062C11.7307 9.14062 12.1107 9.24861 12.5127 9.47661L27.1203 17.7764V17.7774Z" fill="url(#paint3_linear_0_10101)"/>
<path fill-rule="evenodd" clip-rule="evenodd" d="M11.4844 34.8591C11.7984 34.8411 12.1464 34.7331 12.5124 34.5261L27.026 26.2793L12.5124 34.5261C12.1464 34.7341 11.7984 34.8421 11.4844 34.8591Z" fill="black"/>
<path fill-rule="evenodd" clip-rule="evenodd" d="M27.0273 26.2786L27.1213 26.2246L27.0273 26.2786Z" fill="url(#paint4_linear_0_10101)"/>
<path fill-rule="evenodd" clip-rule="evenodd" d="M11.3916 34.8626C11.0456 34.8626 10.7436 34.7496 10.5076 34.5366V34.5376C10.5066 34.5366 10.5056 34.5356 10.5046 34.5346L10.4396 34.4716C10.4376 34.4696 10.4356 34.4676 10.4336 34.4656L10.5076 34.3906C10.7436 34.6036 11.0456 34.7166 11.3916 34.7156C11.7296 34.7156 12.1106 34.6086 12.5116 34.3806L27.0262 26.1328L27.1192 26.2258L27.0252 26.2798L12.5116 34.5266C12.1456 34.7336 11.7976 34.8416 11.4836 34.8596C11.4526 34.8616 11.4216 34.8626 11.3916 34.8626Z" fill="url(#paint5_linear_0_10101)"/>
<path fill-rule="evenodd" clip-rule="evenodd" d="M10.4356 34.4646C10.1446 34.1566 9.97266 33.6786 9.97266 33.0596V33.0586C9.97266 33.6786 10.1446 34.1566 10.4356 34.4636V34.4646Z" fill="black"/>
<path fill-rule="evenodd" clip-rule="evenodd" d="M10.4336 34.4656V34.4646L10.5076 34.3906L10.4336 34.4656Z" fill="url(#paint6_linear_0_10101)"/>
<path fill-rule="evenodd" clip-rule="evenodd" d="M32.9453 22.5179C33.0223 22.3499 33.0603 22.1759 33.0603 22.003C33.0603 22.002 33.0613 22.002 33.0613 22.002C33.0613 22.1759 33.0223 22.3489 32.9453 22.5179Z" fill="black"/>
<path fill-rule="evenodd" clip-rule="evenodd" d="M27.1203 26.2258L27.0273 26.1328L32.0132 23.2999C32.6472 22.9399 33.0022 22.4759 33.0612 22.0039C33.0612 22.1769 33.0232 22.3509 32.9462 22.5189C32.7912 22.8599 32.4802 23.1809 32.0132 23.4459L27.1203 26.2258Z" fill="url(#paint7_linear_0_10101)"/>
<path d="M33.063 22.0012H33.062C33.062 21.4782 32.713 20.9552 32.014 20.5582L27.1211 17.7783V17.7773L32.014 20.5582C32.713 20.9552 33.063 21.4782 33.063 22.0012Z" fill="#404040"/>
<path fill-rule="evenodd" clip-rule="evenodd" d="M33.0612 22.0002C33.0022 21.5262 32.6472 21.0622 32.0132 20.7032L27.0273 17.8703L27.1203 17.7773L32.0132 20.5572C32.7122 20.9542 33.0612 21.4772 33.0612 22.0002Z" fill="url(#paint8_linear_0_10101)"/>
<path d="M9.97656 10.7646C10.0345 9.7376 10.5925 9.14463 11.3825 9.14062C11.0405 9.14263 10.7425 9.25462 10.5085 9.46562L10.5055 9.46861C10.4815 9.49061 10.4575 9.51361 10.4345 9.53761C10.1725 9.8156 10.0065 10.2316 9.97656 10.7646Z" fill="#404040"/>
<path fill-rule="evenodd" clip-rule="evenodd" d="M9.97266 11.091V10.945C9.97266 10.943 9.97266 10.941 9.97266 10.939V10.938C9.97266 10.883 9.97466 10.829 9.97666 10.777C9.97766 10.776 9.97766 10.775 9.97766 10.774C9.97766 10.774 9.97766 10.773 9.97766 10.772C9.97766 10.771 9.97766 10.769 9.97766 10.767V10.766C10.0076 10.2331 10.1736 9.81705 10.4356 9.53906L10.5086 9.61306C10.1736 9.91505 9.97266 10.421 9.97266 11.091Z" fill="url(#paint9_linear_0_10101)"/>
<path fill-rule="evenodd" clip-rule="evenodd" d="M27.0262 17.8704L12.5116 9.6236C12.1096 9.39461 11.7286 9.28661 11.3896 9.28661C11.0436 9.28661 10.7426 9.39961 10.5066 9.6116L10.4336 9.53761C10.4566 9.51361 10.4806 9.49061 10.5046 9.46861C10.5056 9.46761 10.5066 9.46662 10.5076 9.46562C10.7416 9.25462 11.0396 9.14263 11.3816 9.14062H11.3896C11.7286 9.14062 12.1096 9.24861 12.5116 9.47761L27.1192 17.7774L27.0262 17.8704Z" fill="url(#paint10_linear_0_10101)"/>
<defs>
<linearGradient id="paint0_linear_0_10101" x1="17.8954" y1="10.711" x2="7.22085" y2="0.0363624" gradientUnits="userSpaceOnUse">
<stop stop-color="#00A0FF"/>
<stop offset="1" stop-color="#00E2FF"/>
</linearGradient>
<linearGradient id="paint1_linear_0_10101" x1="33.8327" y1="22.0014" x2="9.63625" y2="22.0014" gradientUnits="userSpaceOnUse">
<stop stop-color="#FFDF00"/>
<stop offset="1" stop-color="#FF9C00"/>
</linearGradient>
<linearGradient id="paint2_linear_0_10101" x1="24.8345" y1="25.9237" x2="6.65158" y2="7.66591" gradientUnits="userSpaceOnUse">
<stop stop-color="#FF3A44"/>
<stop offset="1" stop-color="#C31162"/>
</linearGradient>
<linearGradient id="paint3_linear_0_10101" x1="7.29714" y1="7.54423" x2="15.423" y2="-0.581591" gradientUnits="userSpaceOnUse">
<stop stop-color="#31A070"/>
<stop offset="1" stop-color="#00EF75"/>
</linearGradient>
<linearGradient id="paint4_linear_0_10101" x1="27.7098" y1="26.022" x2="25.4354" y2="26.022" gradientUnits="userSpaceOnUse">
<stop stop-color="#CCB300"/>
<stop offset="1" stop-color="#CC7C00"/>
</linearGradient>
<linearGradient id="paint5_linear_0_10101" x1="24.8253" y1="28.8004" x2="10.3317" y2="14.3067" gradientUnits="userSpaceOnUse">
<stop stop-color="#CC2D36"/>
<stop offset="1" stop-color="#9C0E4D"/>
</linearGradient>
<linearGradient id="paint6_linear_0_10101" x1="11.5329" y1="33.6684" x2="9.82624" y2="31.9843" gradientUnits="userSpaceOnUse">
<stop stop-color="#DF333B"/>
<stop offset="1" stop-color="#AA0E56"/>
</linearGradient>
<linearGradient id="paint7_linear_0_10101" x1="33.8336" y1="22.0023" x2="9.63723" y2="22.0023" gradientUnits="userSpaceOnUse">
<stop stop-color="#DFC400"/>
<stop offset="1" stop-color="#DF8900"/>
</linearGradient>
<linearGradient id="paint8_linear_0_10101" x1="33.8336" y1="22.0006" x2="9.63723" y2="22.0006" gradientUnits="userSpaceOnUse">
<stop stop-color="#FFE83F"/>
<stop offset="1" stop-color="#FFB53F"/>
</linearGradient>
<linearGradient id="paint9_linear_0_10101" x1="12.7613" y1="10.7276" x2="3.29533" y2="5.87878" gradientUnits="userSpaceOnUse">
<stop stop-color="#3FB8FF"/>
<stop offset="1" stop-color="#3FE9FF"/>
</linearGradient>
<linearGradient id="paint10_linear_0_10101" x1="7.29599" y1="10.4042" x2="13.768" y2="3.93228" gradientUnits="userSpaceOnUse">
<stop stop-color="#64B895"/>
<stop offset="1" stop-color="#3FF497"/>
</linearGradient>
</defs>
</svg>
