<svg width="68" height="15" viewBox="0 0 68 15" fill="none" xmlns="http://www.w3.org/2000/svg">
<path d="M6.46598 14.2734C5.15186 14.2734 4.03485 14.0763 3.11497 13.6821C2.19508 13.2878 1.47231 12.6965 0.979519 11.908C0.486723 11.1195 0.256752 10.1339 0.256752 8.95117C0.256752 7.76845 0.486723 6.78284 0.979519 5.99436C1.47231 5.20587 2.16223 4.61451 3.11497 4.22027C4.03485 3.82603 5.15186 3.62891 6.46598 3.62891C7.2873 3.62891 8.04292 3.72747 8.73284 3.89174C9.42275 4.056 10.047 4.31883 10.5726 4.68022C11.0983 5.04161 11.5253 5.4687 11.821 5.99436C12.1167 6.52001 12.2481 7.11138 12.2481 7.8013H9.58702C9.58702 7.34135 9.4556 6.94711 9.15993 6.65143C8.86425 6.32289 8.50287 6.09292 8.01007 5.92865C7.55013 5.76438 7.02448 5.69868 6.46598 5.69868C5.74321 5.69868 5.119 5.83009 4.62621 6.06006C4.10056 6.29004 3.70632 6.61857 3.4435 7.07852C3.18067 7.53847 3.01641 8.09698 3.01641 8.75405V9.14829C3.01641 9.80536 3.14782 10.3639 3.4435 10.8238C3.73917 11.2838 4.13341 11.6123 4.65906 11.8751C5.18471 12.1051 5.84177 12.2365 6.56454 12.2365C7.12304 12.2365 7.61583 12.138 8.10863 11.9737C8.56857 11.8094 8.96281 11.5466 9.25849 11.2181C9.55416 10.8895 9.68558 10.5281 9.68558 10.0682H12.2481C12.2481 10.7581 12.0838 11.3823 11.7882 11.908C11.4925 12.4336 11.0654 12.8607 10.5398 13.2221C10.0141 13.5835 9.3899 13.8135 8.69999 14.0106C8.04292 14.1749 7.2873 14.2734 6.46598 14.2734Z" fill="#5CB24A"/>
<path d="M20.5277 14.2738C19.2136 14.2738 18.0966 14.0767 17.1438 13.7153C16.1911 13.321 15.4683 12.7625 14.9755 11.974C14.4499 11.1856 14.2199 10.2 14.2199 8.98438C14.2199 7.80165 14.4827 6.81605 14.9755 6.02757C15.4683 5.23908 16.1911 4.64772 17.1438 4.25347C18.0637 3.85923 19.1807 3.66211 20.462 3.66211C21.809 3.66211 22.926 3.85923 23.8459 4.25347C24.7658 4.64772 25.4557 5.20622 25.9156 5.96185C26.3756 6.71748 26.6055 7.63738 26.6055 8.68869V9.60859H16.9796C17.0124 10.2328 17.1767 10.7256 17.5052 11.1199C17.8009 11.5141 18.228 11.7769 18.7536 11.9412C19.2793 12.1055 19.9035 12.204 20.5934 12.204C20.8891 12.204 21.1848 12.1712 21.5462 12.1055C21.9075 12.0398 22.2361 11.9412 22.5646 11.8098C22.8931 11.6784 23.156 11.5141 23.3859 11.2841C23.6159 11.087 23.7473 10.8242 23.7802 10.4956H26.4741C26.4741 11.0213 26.3427 11.4812 26.0799 11.9412C25.817 12.4011 25.4228 12.7954 24.93 13.1239C24.4044 13.4525 23.7802 13.7153 23.0574 13.9124C22.3018 14.1752 21.4804 14.2738 20.5277 14.2738ZM16.9796 7.86736H23.7802C23.7802 7.50597 23.6816 7.17744 23.5173 6.91461C23.3531 6.65178 23.0902 6.42181 22.7946 6.25754C22.4989 6.09327 22.1375 5.96186 21.7433 5.8633C21.349 5.76474 20.9219 5.73188 20.462 5.73188C19.8049 5.73188 19.2136 5.79759 18.7208 5.96185C18.228 6.12612 17.8009 6.3561 17.5052 6.68463C17.2096 7.01317 17.0453 7.40741 16.9796 7.86736Z" fill="#5CB24A"/>
<path d="M48.3207 14.2738C47.0394 14.2738 45.9224 14.0767 44.9697 13.6824C44.0498 13.2882 43.327 12.6968 42.8342 11.9083C42.3415 11.1199 42.0786 10.1343 42.0786 8.98438C42.0786 7.80165 42.3415 6.81605 42.8342 6.02757C43.327 5.23908 44.0498 4.64772 44.9697 4.25347C45.8896 3.85923 47.0066 3.66211 48.3207 3.66211C49.602 3.66211 50.719 3.85923 51.6717 4.25347C52.5916 4.64772 53.3144 5.23908 53.8072 6.02757C54.3 6.81605 54.5628 7.80165 54.5628 8.98438C54.5628 10.1671 54.3 11.1199 53.8072 11.9083C53.3144 12.6968 52.5916 13.2882 51.6717 13.6824C50.7518 14.0767 49.6348 14.2738 48.3207 14.2738ZM48.3207 12.204C49.0435 12.204 49.6677 12.0726 50.1605 11.8426C50.6861 11.6127 51.0804 11.2513 51.3432 10.7913C51.606 10.3314 51.7703 9.77286 51.7703 9.11579V8.72155C51.7703 8.06448 51.6389 7.50597 51.3432 7.04602C51.0804 6.58607 50.6861 6.25754 50.1605 6.02757C49.6348 5.79759 49.0106 5.66617 48.3207 5.66617C47.5979 5.66617 46.9737 5.79759 46.4809 6.02757C45.9553 6.25754 45.5611 6.58607 45.2982 7.04602C45.0354 7.50597 44.8711 8.06448 44.8711 8.72155V9.11579C44.8711 9.77286 45.0026 10.3314 45.2982 10.7913C45.5611 11.2513 45.9553 11.5798 46.4809 11.8426C47.0066 12.0726 47.6308 12.204 48.3207 12.204Z" fill="#5CB24A"/>
<path d="M56.8629 14.0442V3.92529H59.1954V5.66652H59.3597C59.7211 5.17372 60.1482 4.77948 60.641 4.48379C61.1009 4.18811 61.6265 3.991 62.1522 3.89244C62.6778 3.76102 63.2035 3.69531 63.6963 3.69531C64.649 3.69531 65.4375 3.82673 66.0617 4.12241C66.6859 4.41809 67.1787 4.87804 67.5072 5.4694C67.8358 6.06076 68 6.84925 68 7.76914V14.0442H65.3389V8.2291C65.3389 7.802 65.2732 7.44061 65.1418 7.11207C65.0104 6.81639 64.8461 6.58642 64.6162 6.3893C64.3862 6.22503 64.1234 6.09362 63.7948 5.99506C63.4663 5.92935 63.1378 5.86365 62.7436 5.86365C62.1851 5.86365 61.6594 5.99506 61.1666 6.22503C60.6738 6.45501 60.2796 6.78354 59.951 7.17779C59.6554 7.57203 59.4911 8.06483 59.4911 8.62334V14.0113H56.8629V14.0442Z" fill="#5CB24A"/>
<path d="M32.5189 3.89144V2.61015C32.5189 2.41303 32.6832 2.24876 32.8803 2.24876H35.41V0.113281H32.1904C30.9091 0.113281 29.8907 1.13174 29.8907 2.41303V3.89144H27.8209V5.9612H29.8907V14.0432H32.5518V5.9612H37.1512V3.89144H32.5189Z" fill="#5CB24A"/>
<path d="M39.8116 3.89062H37.1506V14.0095H39.8116V3.89062Z" fill="#5CB24A"/>
<path d="M39.8116 0.113281H37.1506V2.24876H39.8116V0.113281Z" fill="#5CB24A"/>
</svg>
