<svg width="52" height="55" viewBox="0 0 52 55" fill="none" xmlns="http://www.w3.org/2000/svg">
<path d="M18.5295 1.81641L15.9343 5.24217L12.5085 4.77502L14.5328 3.47738L18.3738 1.86831L18.5295 1.81641Z" fill="#5CB24A"/>
<path d="M13.0273 28.4952L7.88869 24.2909L7.47345 16.2455L11.7296 14.377L13.0273 28.4952Z" fill="#4B923D"/>
<path d="M7.88933 24.2914L5.50171 19.8795L7.47409 16.2461L7.88933 24.2914Z" fill="#5CB24A"/>
<path d="M7.47472 16.2457L5.50234 19.8791L1.86901 15L7.47472 16.2457Z" fill="#529F42"/>
<path d="M9.34286 8.46063L7.47428 16.2464L1.86857 15.0007L0 13.6512L9.08333 6.85156L9.34286 8.46063Z" fill="#5CB24A"/>
<path d="M12.5096 4.77539L12.2501 7.78591L9.34342 8.46068L9.0839 6.85161L12.5096 4.77539Z" fill="#4B923D"/>
<path d="M25.9527 28.1842V28.2361L20.9699 26.7308L17.077 24.0836L17.7518 22.5265L18.8937 19.9831V19.9312L20.0356 17.3359L25.9527 28.1842Z" fill="#5CB24A"/>
<path d="M20.9699 26.7312L19.8799 26.835L17.077 25.174V24.084L20.9699 26.7312Z" fill="#2E6126"/>
<path d="M21.1769 29.3262L20.2945 28.7033V27.6133L21.0212 27.769L21.1769 29.3262Z" fill="#2E6126"/>
<path d="M25.9529 35.8139L22.1638 40.1221L21.1776 29.3257L21.0219 27.7686L20.97 26.7305L25.9529 35.8139Z" fill="#5CB24A"/>
<path d="M25.9526 49.1027L22.7864 47.4417V47.3898L22.1635 40.123L25.9526 49.1027Z" fill="#4B923D"/>
<path d="M25.953 49.1024V54.3967L23.5135 52.3724L22.7868 47.4414L25.953 49.1024Z" fill="#5CB24A"/>
<path d="M25.9523 0L19.4123 2.38765L18.5299 1.81669L24.8623 0H25.9523Z" fill="#529F42"/>
<path d="M25.9524 0V5.65769L14.9486 9.13536L15.6234 8.09725L19.4124 2.38765L25.9524 0Z" fill="#5CB24A"/>
<path d="M25.9517 5.6582V17.3888L20.0345 17.3369L19.256 10.5892L25.9517 5.6582Z" fill="#5CB24A"/>
<path d="M25.9522 17.3878V28.1842L20.0351 17.3359L25.9522 17.3878Z" fill="#529F42"/>
<path d="M25.9526 35.8145V49.1022L22.1635 40.1226L25.9526 35.8145Z" fill="#529F42"/>
<path d="M25.9529 28.2357V35.8139L20.97 26.7305L25.9529 28.2357Z" fill="#4B923D"/>
<path d="M20.0357 17.3362L18.8938 19.9315L19.2571 17.2324L20.0357 17.3362Z" fill="#4B923D"/>
<path d="M18.8927 19.9836L17.7508 22.527L18.6851 19.5684L18.8927 19.9836Z" fill="#2E6126"/>
<path d="M18.685 19.5684L17.7507 22.527L17.4912 22.2674L13.0274 28.4961L18.685 19.5684Z" fill="#2E6126"/>
<path d="M18.6864 19.5689L13.0288 28.4966L11.7312 14.3784L15.0531 10.7969L15.2088 12.7174L18.6864 19.5689Z" fill="#529F42"/>
<path d="M15.0531 10.7964L11.7312 14.3779L12.2502 7.78591L12.5097 4.77539L14.9492 9.13545L15.0531 10.7964Z" fill="#5CB24A"/>
<path d="M19.4132 2.38737L15.6241 8.09697L15.9356 5.24217L18.5308 1.81641L19.4132 2.38737Z" fill="#4B923D"/>
<path d="M12.2487 7.78516L11.7296 14.3771L7.47345 16.2457L9.34202 8.45993L12.2487 7.78516Z" fill="#529F42"/>
<path d="M19.257 17.2331L18.8937 19.9322V19.9841L17.077 12.873L19.257 17.2331Z" fill="#5CB24A"/>
<path d="M18.8934 19.983L18.6858 19.5678L15.2081 12.7162L15.0524 10.7957L14.9486 9.13477L16.7134 11.9896L15.9348 12.4567L17.0767 12.872L18.8934 19.983Z" fill="#4B923D"/>
<path d="M17.4929 11.9375L16.7662 12.4566H15.9358L16.7143 11.9894L17.4929 11.9375Z" fill="#3C7731"/>
<path d="M17.8554 13.0794L16.7654 12.4566L17.4921 11.9375L17.8554 13.0794Z" fill="#3C7731"/>
<path d="M15.9343 5.24254L15.6228 8.09734L14.9481 9.13545L12.5085 4.77539L15.9343 5.24254Z" fill="#529F42"/>
<path d="M25.9524 5.6582L19.2567 10.5892L14.9486 9.13587L25.9524 5.6582Z" fill="#4B923D"/>
<path d="M17.8562 13.0799L17.0777 12.8723L15.9358 12.457H16.7662L17.8562 13.0799Z" fill="#2E6126"/>
<path d="M19.2567 10.5881L17.4919 11.9377L16.7134 11.9896L14.9486 9.13477L19.2567 10.5881Z" fill="#5CB24A"/>
<path d="M20.0356 17.3356L19.257 17.2318L17.077 12.8717L17.8556 13.0794L17.4923 11.9374L19.257 10.5879L20.0356 17.3356Z" fill="#529F42"/>
<path d="M18.2699 40.123L17.6989 47.9608L17.3356 41.9916L18.2699 40.123Z" fill="#EDEDED"/>
<path d="M20.2942 28.7031L18.2699 40.1223L17.3356 41.9909L17.4394 34.6723L20.2942 28.7031Z" fill="#DADADA"/>
<path d="M20.294 27.6145V28.7045L17.4392 34.6737L19.8787 26.8359L20.294 27.6145Z" fill="#DADADA"/>
<path d="M17.6996 47.96L15.7791 41.4199L17.3362 41.9909L17.6996 47.96Z" fill="white"/>
<path d="M17.44 34.6723L17.3362 41.991L15.7791 41.42L16.1943 33.4785L17.44 34.6723Z" fill="white"/>
<path d="M17.6996 25.5898L17.44 34.6733L16.1943 33.4795L17.6996 25.5898Z" fill="white"/>
<path d="M21.0212 27.7686L20.2945 27.6129L19.8793 26.8343L20.9693 26.7305L21.0212 27.7686Z" fill="#376F2D"/>
<path d="M17.6987 25.5898L17.4392 34.6733L19.8787 26.8356L17.6987 25.5898Z" fill="#EDEDED"/>
<path d="M33.3741 1.81641L35.9693 5.24217L39.3951 4.77502L37.3708 3.47738L33.5298 1.86831L33.3741 1.81641Z" fill="#5CB24A"/>
<path d="M38.8245 28.4952L44.0149 24.2909L44.4302 16.2455L40.1221 14.377L38.8245 28.4952Z" fill="#4B923D"/>
<path d="M44.0154 24.2914L46.3511 19.8795L44.4306 16.2461L44.0154 24.2914Z" fill="#5CB24A"/>
<path d="M44.4306 16.2457L46.3511 19.8791L50.0363 15L44.4306 16.2457Z" fill="#529F42"/>
<path d="M42.5102 8.46063L44.4307 16.2464L50.0364 15.0007L51.905 13.6512L42.7698 6.85156L42.5102 8.46063Z" fill="#5CB24A"/>
<path d="M39.3955 4.77539L39.6031 7.78591L42.5098 8.46068L42.7693 6.85161L39.3955 4.77539Z" fill="#4B923D"/>
<path d="M25.9529 28.1842V28.2361L30.9357 26.7308L34.8286 24.0836L34.1019 22.5265L33.0119 19.9831V19.9312L31.87 17.3359L25.9529 28.1842Z" fill="#5CB24A"/>
<path d="M30.9349 26.7312L32.0249 26.835L34.8278 25.174V24.084L30.9349 26.7312Z" fill="#2E6126"/>
<path d="M30.7277 29.3262L31.5582 28.7033V27.6133L30.8315 27.769L30.7277 29.3262Z" fill="#2E6126"/>
<path d="M25.9529 35.8139L29.7419 40.1221L30.7281 29.3257L30.8319 27.7686L30.9357 26.7305L25.9529 35.8139Z" fill="#5CB24A"/>
<path d="M25.9529 49.1027L29.0672 47.4417V47.3898L29.7419 40.123L25.9529 49.1027Z" fill="#4B923D"/>
<path d="M25.9529 49.1024V54.3967L28.3924 52.3724L29.0672 47.4414L25.9529 49.1024Z" fill="#5CB24A"/>
<path d="M25.9529 0L32.441 2.38765L33.3753 1.81669L26.991 0H25.9529Z" fill="#529F42"/>
<path d="M25.9529 0V5.65769L36.9567 9.13536L36.23 8.09725L32.441 2.38765L25.9529 0Z" fill="#5CB24A"/>
<path d="M25.9529 5.6582V17.3888L31.87 17.3369L32.5967 10.5892L25.9529 5.6582Z" fill="#5CB24A"/>
<path d="M25.9529 17.3878V28.1842L31.87 17.3359L25.9529 17.3878Z" fill="#529F42"/>
<path d="M25.9529 35.8145V49.1022L29.7419 40.1226L25.9529 35.8145Z" fill="#529F42"/>
<path d="M25.9529 28.2357V35.8139L30.9357 26.7305L25.9529 28.2357Z" fill="#4B923D"/>
<path d="M31.869 17.3362L33.0109 19.9315L32.5956 17.2324L31.869 17.3362Z" fill="#4B923D"/>
<path d="M33.012 19.9836L34.102 22.527L33.2196 19.5684L33.012 19.9836Z" fill="#2E6126"/>
<path d="M33.2191 19.5684L34.1015 22.527L34.413 22.2674L38.8249 28.4961L33.2191 19.5684Z" fill="#2E6126"/>
<path d="M33.2191 19.5689L38.8249 28.4966L40.1225 14.3784L36.8006 10.7969L36.6449 12.7174L33.2191 19.5689Z" fill="#529F42"/>
<path d="M36.8005 10.7964L40.1224 14.3779L39.6033 7.78591L39.3957 4.77539L36.9562 9.13545L36.8005 10.7964Z" fill="#5CB24A"/>
<path d="M32.44 2.38737L36.2291 8.09697L35.9696 5.24217L33.3743 1.81641L32.44 2.38737Z" fill="#4B923D"/>
<path d="M39.6036 7.78516L40.1226 14.3771L44.4307 16.2457L42.5102 8.45993L39.6036 7.78516Z" fill="#529F42"/>
<path d="M32.5967 17.2331L33.0119 19.9322V19.9841L34.7767 12.873L32.5967 17.2331Z" fill="#5CB24A"/>
<path d="M33.012 19.983L33.2196 19.5678L36.6453 12.7162L36.801 10.7957L36.9567 9.13477L35.192 11.9896L35.9705 12.4567L34.7767 12.872L33.012 19.983Z" fill="#4B923D"/>
<path d="M34.4126 11.9375L35.1393 12.4566H35.9698L35.1912 11.9894L34.4126 11.9375Z" fill="#3C7731"/>
<path d="M34.0496 13.0794L35.1396 12.4566L34.413 11.9375L34.0496 13.0794Z" fill="#3C7731"/>
<path d="M35.9709 5.24254L36.2304 8.09734L36.957 9.13545L39.3966 4.77539L35.9709 5.24254Z" fill="#529F42"/>
<path d="M25.9529 5.6582L32.5967 10.5892L36.9567 9.13587L25.9529 5.6582Z" fill="#4B923D"/>
<path d="M34.0496 13.0799L34.7763 12.8723L35.9701 12.457H35.1396L34.0496 13.0799Z" fill="#2E6126"/>
<path d="M32.5967 10.5881L34.4134 11.9377L35.1919 11.9896L36.9567 9.13477L32.5967 10.5881Z" fill="#5CB24A"/>
<path d="M31.869 17.3356L32.5956 17.2318L34.7756 12.8717L34.049 13.0794L34.4123 11.9374L32.5956 10.5879L31.869 17.3356Z" fill="#529F42"/>
<path d="M33.5822 40.123L34.1531 47.9608L34.5683 41.9916L33.5822 40.123Z" fill="#EDEDED"/>
<path d="M31.5573 28.7031L33.5816 40.1223L34.5678 41.9909L34.464 34.6723L31.5573 28.7031Z" fill="#DADADA"/>
<path d="M31.5573 27.6145V28.7045L34.464 34.6737L32.0245 26.8359L31.5573 27.6145Z" fill="#DADADA"/>
<path d="M34.1532 47.96L36.1256 41.4199L34.5685 41.9909L34.1532 47.96Z" fill="white"/>
<path d="M34.4649 34.6723L34.5687 41.991L36.1258 41.42L35.6587 33.4785L34.4649 34.6723Z" fill="white"/>
<path d="M34.1532 25.5898L34.4646 34.6733L35.6585 33.4795L34.1532 25.5898Z" fill="white"/>
<path d="M30.8313 27.7686L31.558 27.6129L32.0251 26.8343L30.9351 26.7305L30.8313 27.7686Z" fill="#376F2D"/>
<path d="M34.1529 25.5898L34.4643 34.6733L32.0248 26.8356L34.1529 25.5898Z" fill="#EDEDED"/>
</svg>
