<svg width="120" height="44" viewBox="0 0 120 44" fill="none" xmlns="http://www.w3.org/2000/svg">
<path d="M0 2C0 0.895431 0.895431 0 2 0H118C119.105 0 120 0.895431 120 2V42C120 43.1046 119.105 44 118 44H2C0.895429 44 0 43.1046 0 42V2Z" fill="#1C1C1E"/>
<path d="M24.768 22.3003C24.7787 21.4656 25.0004 20.6473 25.4125 19.9213C25.8245 19.1953 26.4135 18.5854 27.1245 18.1482C26.6728 17.5031 26.0769 16.9721 25.384 16.5976C24.6912 16.223 23.9206 16.0152 23.1334 15.9906C21.4541 15.8143 19.8262 16.9954 18.9705 16.9954C18.0982 16.9954 16.7807 16.0081 15.362 16.0372C14.4443 16.0669 13.55 16.3337 12.7661 16.8118C11.9822 17.2899 11.3355 17.9628 10.8891 18.7651C8.95508 22.1135 10.3977 27.0346 12.2503 29.7412C13.1772 31.0665 14.2604 32.547 15.6779 32.4945C17.065 32.437 17.583 31.61 19.2573 31.61C20.9161 31.61 21.4021 32.4945 22.8483 32.4611C24.3367 32.437 25.2744 31.1299 26.1688 29.792C26.8348 28.8476 27.3472 27.8039 27.6872 26.6995C26.8225 26.3337 26.0846 25.7216 25.5655 24.9393C25.0464 24.157 24.769 23.2392 24.768 22.3003Z" fill="white"/>
<path d="M22.0376 14.2113C22.8491 13.2371 23.2489 11.9849 23.1521 10.7207C21.9122 10.8509 20.767 11.4435 19.9445 12.3803C19.5424 12.838 19.2344 13.3704 19.0381 13.9472C18.8419 14.5239 18.7612 15.1337 18.8008 15.7417C19.4209 15.7481 20.0344 15.6136 20.5951 15.3486C21.1558 15.0835 21.649 14.6946 22.0376 14.2113Z" fill="white"/>
<path d="M42.3027 29.1396H37.5693L36.4326 32.4961H34.4277L38.9111 20.0781H40.9941L45.4775 32.4961H43.4384L42.3027 29.1396ZM38.0595 27.5908H41.8115L39.9619 22.1435H39.9101L38.0595 27.5908Z" fill="white"/>
<path d="M55.1593 27.9695C55.1593 30.783 53.6534 32.5906 51.381 32.5906C50.8053 32.6207 50.2328 32.4881 49.729 32.208C49.2252 31.9278 48.8105 31.5115 48.5323 31.0066H48.4893V35.491H46.6309V23.4421H48.4298V24.948H48.464C48.7549 24.4455 49.1767 24.0314 49.6843 23.7495C50.1919 23.4677 50.7665 23.3287 51.3468 23.3474C53.6446 23.3474 55.1593 25.1638 55.1593 27.9695ZM53.2491 27.9695C53.2491 26.1365 52.3019 24.9314 50.8566 24.9314C49.4366 24.9314 48.4816 26.1619 48.4816 27.9695C48.4816 29.7937 49.4366 31.0154 50.8566 31.0154C52.3019 31.0154 53.2491 29.8191 53.2491 27.9695Z" fill="white"/>
<path d="M65.126 27.9694C65.126 30.7829 63.6202 32.5905 61.3477 32.5905C60.7721 32.6207 60.1996 32.488 59.6958 32.2079C59.192 31.9278 58.7773 31.5114 58.4991 31.0065H58.4561V35.4909H56.5977V23.4421H58.3965V24.948H58.4307C58.7216 24.4455 59.1434 24.0313 59.651 23.7495C60.1586 23.4676 60.7332 23.3287 61.3135 23.3474C63.6114 23.3474 65.126 25.1638 65.126 27.9694ZM63.2159 27.9694C63.2159 26.1364 62.2686 24.9314 60.8233 24.9314C59.4034 24.9314 58.4483 26.1618 58.4483 27.9694C58.4483 29.7937 59.4034 31.0153 60.8233 31.0153C62.2686 31.0153 63.2159 29.8191 63.2159 27.9694Z" fill="white"/>
<path d="M71.711 29.0362C71.8487 30.2677 73.045 31.0762 74.6797 31.0762C76.2461 31.0762 77.3731 30.2676 77.3731 29.1573C77.3731 28.1934 76.6934 27.6163 75.084 27.2208L73.4747 26.8331C71.1944 26.2823 70.1358 25.2159 70.1358 23.4854C70.1358 21.3428 72.003 19.8711 74.6543 19.8711C77.2783 19.8711 79.0772 21.3428 79.1377 23.4854H77.2617C77.1494 22.2461 76.125 21.4981 74.6279 21.4981C73.1309 21.4981 72.1065 22.2549 72.1065 23.3565C72.1065 24.2344 72.7608 24.751 74.3613 25.1465L75.7295 25.4824C78.2774 26.085 79.336 27.1084 79.336 28.9248C79.336 31.2481 77.4854 32.7031 74.542 32.7031C71.7881 32.7031 69.9287 31.2822 69.8086 29.0361L71.711 29.0362Z" fill="white"/>
<path d="M83.3457 21.3008V23.4434H85.0674V24.9151H83.3457V29.9063C83.3457 30.6817 83.6904 31.043 84.4473 31.043C84.6517 31.0394 84.8557 31.0251 85.0586 31V32.4629C84.7183 32.5265 84.3725 32.5553 84.0264 32.5488C82.1934 32.5488 81.4785 31.8603 81.4785 30.1045V24.9151H80.1621V23.4434H81.4785V21.3008H83.3457Z" fill="white"/>
<path d="M86.0664 27.9706C86.0664 25.122 87.7441 23.332 90.3603 23.332C92.9853 23.332 94.6553 25.122 94.6553 27.9706C94.6553 30.8271 92.9941 32.6093 90.3603 32.6093C87.7275 32.6093 86.0664 30.8271 86.0664 27.9706ZM92.7617 27.9706C92.7617 26.0165 91.8662 24.8632 90.3603 24.8632C88.8545 24.8632 87.9599 26.0253 87.9599 27.9706C87.9599 29.9325 88.8545 31.0771 90.3603 31.0771C91.8662 31.0771 92.7617 29.9325 92.7617 27.9706Z" fill="white"/>
<path d="M96.1875 23.4421H97.9599V24.9831H98.0029C98.1229 24.5018 98.4048 24.0765 98.8014 23.7786C99.198 23.4807 99.685 23.3284 100.18 23.3473C100.394 23.3466 100.608 23.3699 100.817 23.4167V25.155C100.547 25.0723 100.265 25.0344 99.9824 25.0427C99.7124 25.0317 99.4433 25.0793 99.1934 25.1822C98.9436 25.2851 98.719 25.4408 98.535 25.6387C98.351 25.8366 98.212 26.072 98.1276 26.3286C98.0432 26.5853 98.0153 26.8572 98.0459 27.1257V32.4958H96.1875V23.4421Z" fill="white"/>
<path d="M109.384 29.8378C109.134 31.4814 107.534 32.6093 105.486 32.6093C102.852 32.6093 101.217 30.8446 101.217 28.0136C101.217 25.1738 102.861 23.332 105.408 23.332C107.913 23.332 109.488 25.0527 109.488 27.7978V28.4345H103.093V28.5468C103.064 28.88 103.105 29.2157 103.216 29.5315C103.326 29.8473 103.502 30.1361 103.732 30.3787C103.963 30.6212 104.242 30.812 104.552 30.9383C104.861 31.0646 105.195 31.1235 105.529 31.1112C105.968 31.1524 106.409 31.0507 106.785 30.8212C107.162 30.5918 107.455 30.2469 107.62 29.8378H109.384ZM103.102 27.1357H107.628C107.645 26.8361 107.6 26.5363 107.495 26.255C107.39 25.9738 107.229 25.7173 107.02 25.5015C106.812 25.2858 106.561 25.1154 106.283 25.0012C106.006 24.887 105.708 24.8314 105.408 24.8378C105.105 24.836 104.805 24.8942 104.525 25.0089C104.245 25.1236 103.99 25.2927 103.776 25.5063C103.562 25.72 103.392 25.9739 103.276 26.2536C103.16 26.5332 103.101 26.833 103.102 27.1357Z" fill="white"/>
<path d="M37.8272 10.7314C38.2168 10.7035 38.6078 10.7623 38.9719 10.9037C39.336 11.0452 39.6642 11.2657 39.9328 11.5493C40.2014 11.8329 40.4036 12.1726 40.525 12.5439C40.6465 12.9152 40.6839 13.3087 40.6348 13.6963C40.6348 15.6025 39.6045 16.6983 37.8272 16.6983H35.6719V10.7314H37.8272ZM36.5987 15.8544H37.7237C38.0021 15.8711 38.2807 15.8254 38.5392 15.7208C38.7978 15.6162 39.0297 15.4552 39.2182 15.2497C39.4067 15.0441 39.547 14.7991 39.6289 14.5325C39.7107 14.2659 39.7321 13.9843 39.6914 13.7084C39.7292 13.4336 39.7056 13.1538 39.6225 12.8891C39.5394 12.6245 39.3987 12.3815 39.2107 12.1775C39.0226 11.9736 38.7918 11.8138 38.5347 11.7096C38.2776 11.6053 38.0007 11.5593 37.7237 11.5746H36.5987V15.8544Z" fill="white"/>
<path d="M41.6819 14.4437C41.6536 14.1478 41.6874 13.8493 41.7813 13.5672C41.8751 13.2851 42.0269 13.0258 42.2268 12.8058C42.4268 12.5858 42.6705 12.4101 42.9423 12.2898C43.2142 12.1695 43.5082 12.1074 43.8054 12.1074C44.1027 12.1074 44.3967 12.1695 44.6685 12.2898C44.9404 12.4101 45.1841 12.5858 45.384 12.8058C45.584 13.0258 45.7357 13.2851 45.8296 13.5672C45.9234 13.8493 45.9573 14.1478 45.929 14.4437C45.9578 14.74 45.9244 15.039 45.8308 15.3215C45.7372 15.604 45.5855 15.8638 45.3855 16.0842C45.1855 16.3046 44.9416 16.4808 44.6695 16.6013C44.3974 16.7219 44.1031 16.7841 43.8054 16.7841C43.5078 16.7841 43.2135 16.7219 42.9414 16.6013C42.6692 16.4808 42.4253 16.3046 42.2253 16.0842C42.0254 15.8638 41.8737 15.604 41.7801 15.3215C41.6865 15.039 41.6531 14.74 41.6819 14.4437ZM45.0149 14.4437C45.0149 13.4677 44.5764 12.8969 43.8069 12.8969C43.0344 12.8969 42.5999 13.4677 42.5999 14.4438C42.5999 15.4276 43.0345 15.994 43.8069 15.994C44.5764 15.994 45.0149 15.4237 45.0149 14.4437Z" fill="white"/>
<path d="M51.5742 16.6983H50.6523L49.7216 13.3818H49.6513L48.7246 16.6983H47.8115L46.5703 12.1953H47.4716L48.2783 15.6313H48.3447L49.2705 12.1953H50.123L51.0488 15.6313H51.1191L51.9218 12.1953H52.8105L51.5742 16.6983Z" fill="white"/>
<path d="M53.8536 12.1948H54.709V12.9101H54.7754C54.8881 12.6532 55.0781 12.4378 55.319 12.294C55.5598 12.1502 55.8396 12.0852 56.1192 12.1079C56.3383 12.0914 56.5583 12.1244 56.7629 12.2045C56.9675 12.2846 57.1514 12.4097 57.3011 12.5706C57.4508 12.7314 57.5624 12.9239 57.6276 13.1337C57.6928 13.3435 57.7099 13.5653 57.6778 13.7827V16.6977H56.7891V14.0058C56.7891 13.2822 56.4746 12.9223 55.8174 12.9223C55.6687 12.9154 55.5202 12.9407 55.3821 12.9966C55.244 13.0524 55.1197 13.1374 55.0176 13.2458C54.9154 13.3542 54.838 13.4834 54.7904 13.6245C54.7429 13.7656 54.7265 13.9154 54.7422 14.0635V16.6977H53.8535L53.8536 12.1948Z" fill="white"/>
<path d="M59.0938 10.4375H59.9824V16.6983H59.0938V10.4375Z" fill="white"/>
<path d="M61.217 14.4439C61.1887 14.1479 61.2226 13.8494 61.3164 13.5673C61.4103 13.2852 61.5621 13.0258 61.762 12.8059C61.962 12.5859 62.2057 12.4101 62.4776 12.2898C62.7495 12.1695 63.0435 12.1074 63.3408 12.1074C63.6381 12.1074 63.9321 12.1695 64.2039 12.2898C64.4758 12.4101 64.7195 12.5859 64.9195 12.8059C65.1195 13.0258 65.2712 13.2852 65.3651 13.5673C65.459 13.8494 65.4928 14.1479 65.4645 14.4439C65.4934 14.7401 65.4599 15.0391 65.3663 15.3216C65.2726 15.6041 65.1209 15.864 64.9209 16.0844C64.7209 16.3048 64.477 16.4809 64.2049 16.6014C63.9327 16.722 63.6384 16.7842 63.3408 16.7842C63.0431 16.7842 62.7488 16.722 62.4767 16.6014C62.2045 16.4809 61.9606 16.3048 61.7606 16.0844C61.5606 15.864 61.4089 15.6041 61.3153 15.3216C61.2217 15.0391 61.1882 14.7401 61.217 14.4439ZM64.55 14.4439C64.55 13.4678 64.1115 12.897 63.342 12.897C62.5695 12.897 62.135 13.4678 62.135 14.4439C62.135 15.4278 62.5696 15.9942 63.342 15.9942C64.1115 15.9942 64.55 15.4239 64.55 14.4439Z" fill="white"/>
<path d="M66.4023 15.4238C66.4023 14.6133 67.0058 14.146 68.0771 14.0796L69.2968 14.0093V13.6206C69.2968 13.145 68.9824 12.8765 68.375 12.8765C67.8789 12.8765 67.5351 13.0586 67.4365 13.3769H66.5761C66.667 12.6035 67.3945 12.1074 68.416 12.1074C69.5449 12.1074 70.1816 12.6694 70.1816 13.6206V16.6973H69.3261V16.0644H69.2558C69.1131 16.2914 68.9127 16.4765 68.6751 16.6007C68.4375 16.7249 68.1711 16.7838 67.9033 16.7714C67.7143 16.7911 67.5232 16.7709 67.3424 16.7122C67.1617 16.6535 66.9952 16.5576 66.8538 16.4306C66.7124 16.3037 66.5991 16.1485 66.5214 15.9751C66.4436 15.8016 66.4031 15.6139 66.4023 15.4238ZM69.2968 15.039V14.6626L68.1972 14.7329C67.5771 14.7744 67.2959 14.9853 67.2959 15.3823C67.2959 15.7876 67.6474 16.0234 68.1309 16.0234C68.2725 16.0377 68.4156 16.0234 68.5516 15.9814C68.6876 15.9393 68.8137 15.8702 68.9225 15.7784C69.0313 15.6866 69.1205 15.5738 69.1848 15.4468C69.2491 15.3197 69.2872 15.1811 69.2968 15.039Z" fill="white"/>
<path d="M71.3477 14.4449C71.3477 13.022 72.0791 12.1206 73.2168 12.1206C73.4982 12.1077 73.7775 12.1751 74.0221 12.315C74.2666 12.4549 74.4662 12.6615 74.5977 12.9106H74.6641V10.4375H75.5528V16.6983H74.7012V15.9868H74.6309C74.4893 16.2343 74.2827 16.4383 74.0334 16.5768C73.7842 16.7153 73.5018 16.783 73.2168 16.7725C72.0713 16.7725 71.3477 15.8711 71.3477 14.4449ZM72.2657 14.4449C72.2657 15.3999 72.7159 15.9746 73.4688 15.9746C74.2178 15.9746 74.6807 15.3916 74.6807 14.4488C74.6807 13.5103 74.2129 12.919 73.4688 12.919C72.7207 12.919 72.2656 13.4976 72.2656 14.4449H72.2657Z" fill="white"/>
<path d="M79.2288 14.4437C79.2005 14.1478 79.2344 13.8493 79.3282 13.5672C79.422 13.2851 79.5738 13.0258 79.7737 12.8058C79.9737 12.5858 80.2174 12.4101 80.4892 12.2898C80.7611 12.1695 81.0551 12.1074 81.3524 12.1074C81.6496 12.1074 81.9436 12.1695 82.2155 12.2898C82.4873 12.4101 82.731 12.5858 82.931 12.8058C83.1309 13.0258 83.2827 13.2851 83.3765 13.5672C83.4703 13.8493 83.5042 14.1478 83.4759 14.4437C83.5047 14.74 83.4713 15.039 83.3777 15.3215C83.2841 15.604 83.1324 15.8638 82.9324 16.0842C82.7324 16.3046 82.4885 16.4808 82.2164 16.6013C81.9443 16.7219 81.65 16.7841 81.3524 16.7841C81.0547 16.7841 80.7604 16.7219 80.4883 16.6013C80.2161 16.4808 79.9723 16.3046 79.7723 16.0842C79.5723 15.8638 79.4206 15.604 79.327 15.3215C79.2334 15.039 79.2 14.74 79.2288 14.4437ZM82.5618 14.4437C82.5618 13.4677 82.1233 12.8969 81.3538 12.8969C80.5814 12.8969 80.1468 13.4677 80.1468 14.4438C80.1468 15.4276 80.5814 15.994 81.3538 15.994C82.1233 15.994 82.5618 15.4237 82.5618 14.4437Z" fill="white"/>
<path d="M84.6699 12.1948H85.5253V12.9101H85.5917C85.7044 12.6532 85.8944 12.4378 86.1353 12.294C86.3761 12.1502 86.6559 12.0852 86.9355 12.1079C87.1546 12.0914 87.3746 12.1244 87.5792 12.2045C87.7838 12.2846 87.9677 12.4097 88.1174 12.5706C88.2671 12.7314 88.3787 12.9239 88.4439 13.1337C88.5091 13.3435 88.5262 13.5653 88.4941 13.7827V16.6977H87.6054V14.0058C87.6054 13.2822 87.291 12.9223 86.6337 12.9223C86.485 12.9154 86.3365 12.9407 86.1984 12.9966C86.0604 13.0524 85.936 13.1374 85.8339 13.2458C85.7318 13.3542 85.6543 13.4834 85.6068 13.6245C85.5592 13.7656 85.5428 13.9154 85.5585 14.0635V16.6977H84.6699V12.1948Z" fill="white"/>
<path d="M93.5147 11.0742V12.2158H94.4903V12.9644H93.5147V15.2798C93.5147 15.7515 93.709 15.958 94.1514 15.958C94.2646 15.9577 94.3778 15.9508 94.4903 15.9375V16.6777C94.3307 16.7063 94.169 16.7215 94.0069 16.7231C93.0186 16.7231 92.625 16.3755 92.625 15.5073V12.9643H91.9102V12.2158H92.625V11.0742H93.5147Z" fill="white"/>
<path d="M95.7051 10.4375H96.586V12.919H96.6563C96.7744 12.6596 96.9696 12.443 97.2153 12.2987C97.461 12.1544 97.7453 12.0893 98.0293 12.1123C98.2472 12.1005 98.4651 12.1369 98.6674 12.2189C98.8697 12.3009 99.0514 12.4266 99.1995 12.5869C99.3476 12.7473 99.4585 12.9383 99.5243 13.1465C99.5901 13.3546 99.6091 13.5747 99.5801 13.791V16.6983H98.6905V14.0103C98.6905 13.291 98.3555 12.9268 97.7276 12.9268C97.5749 12.9142 97.4212 12.9352 97.2775 12.9883C97.1337 13.0413 97.0032 13.1252 96.8953 13.2339C96.7873 13.3426 96.7043 13.4737 96.6523 13.6178C96.6002 13.7619 96.5803 13.9157 96.5938 14.0684V16.6982H95.7052L95.7051 10.4375Z" fill="white"/>
<path d="M104.761 15.4815C104.641 15.8931 104.379 16.2491 104.022 16.4872C103.666 16.7254 103.236 16.8305 102.81 16.7843C102.513 16.7921 102.219 16.7353 101.946 16.6178C101.674 16.5002 101.43 16.3248 101.232 16.1037C101.034 15.8825 100.887 15.621 100.8 15.3372C100.713 15.0533 100.689 14.754 100.73 14.4601C100.691 14.1652 100.715 13.8652 100.801 13.5806C100.888 13.2959 101.034 13.0331 101.231 12.8101C101.428 12.587 101.671 12.4088 101.942 12.2876C102.214 12.1664 102.509 12.105 102.806 12.1075C104.059 12.1075 104.815 12.9635 104.815 14.3775V14.6876H101.635V14.7374C101.621 14.9027 101.642 15.069 101.696 15.2257C101.75 15.3825 101.837 15.5262 101.95 15.6477C102.062 15.7691 102.2 15.8656 102.352 15.931C102.504 15.9964 102.669 16.0293 102.835 16.0274C103.047 16.0529 103.262 16.0147 103.453 15.9174C103.644 15.8202 103.802 15.6685 103.906 15.4815H104.761ZM101.635 14.0304H103.91C103.921 13.8792 103.9 13.7274 103.849 13.5847C103.798 13.442 103.718 13.3115 103.614 13.2017C103.509 13.0918 103.383 13.005 103.243 12.9468C103.103 12.8887 102.953 12.8604 102.801 12.8639C102.648 12.8619 102.495 12.8908 102.353 12.9487C102.21 13.0067 102.081 13.0925 101.972 13.2013C101.864 13.31 101.778 13.4393 101.72 13.5817C101.662 13.7241 101.633 13.8767 101.635 14.0304Z" fill="white"/>
</svg>
