<svg width="30" height="21" viewBox="0 0 30 21" fill="none" xmlns="http://www.w3.org/2000/svg">
<path d="M26.2844 3.5099C24.2202 1.90987 21.7432 1.10991 19.1285 0.976562L18.7156 1.37659C21.055 1.90987 23.1193 2.97653 25.0459 4.44321C22.7064 3.24321 20.0917 2.44325 17.3394 2.17656C16.5138 2.04322 15.8257 2.04322 15 2.04322C14.1743 2.04322 13.4862 2.04322 12.6606 2.17656C9.90825 2.44325 7.29356 3.24321 4.95412 4.44321C6.88069 2.97653 8.94497 1.90987 11.2844 1.37659L10.8715 0.976562C8.25684 1.10991 5.77978 1.90987 3.71559 3.5099C1.37615 7.7766 0.137616 12.5766 0 17.5098C2.06419 19.6432 4.95412 20.9766 7.98169 20.9766C7.98169 20.9766 8.94497 19.9099 9.633 18.9765C7.84406 18.5766 6.19266 17.6432 5.09175 16.1766C6.05503 16.7099 7.01831 17.2432 7.98169 17.6432C9.22022 18.1765 10.4588 18.4432 11.6973 18.7099C12.7982 18.8432 13.8991 18.9765 15 18.9765C16.1009 18.9765 17.2018 18.8432 18.3027 18.7099C19.5413 18.4432 20.7798 18.1765 22.0183 17.6432C22.9817 17.2432 23.945 16.7099 24.9083 16.1766C23.8073 17.6432 22.1559 18.5766 20.367 18.9765C21.055 19.9099 22.0183 20.9766 22.0183 20.9766C25.0459 20.9766 27.9358 19.6432 30 17.5098C29.8624 12.5766 28.6238 7.7766 26.2844 3.5099ZM10.4587 15.1098C9.08259 15.1098 7.84406 13.9098 7.84406 12.4432C7.84406 10.9766 9.08259 9.77657 10.4587 9.77657C11.8349 9.77657 13.0734 10.9766 13.0734 12.4432C13.0734 13.9098 11.8349 15.1098 10.4587 15.1098ZM19.5413 15.1098C18.1651 15.1098 16.9266 13.9098 16.9266 12.4432C16.9266 10.9766 18.1651 9.77657 19.5413 9.77657C20.9174 9.77657 22.1559 10.9766 22.1559 12.4432C22.1559 13.9098 20.9174 15.1098 19.5413 15.1098Z" fill="white"/>
</svg>
