<svg width="135" height="45" viewBox="0 0 135 45" fill="none" xmlns="http://www.w3.org/2000/svg">
<g clip-path="url(#clip0_0_8780)">
<path d="M0 2.97656C0 1.87199 0.895431 0.976562 2 0.976562H133C134.105 0.976562 135 1.87199 135 2.97656V42.9766C135 44.0812 134.105 44.9766 133 44.9766H2C0.895428 44.9766 0 44.0812 0 42.9766V2.97656Z" fill="#1C1C1E"/>
<path d="M47.4174 13.2206C47.4174 14.0586 47.1694 14.7256 46.6724 15.2236C46.1074 15.8146 45.3725 16.1106 44.4685 16.1106C43.6025 16.1106 42.8655 15.8106 42.2605 15.2106C41.6535 14.6096 41.3516 13.8656 41.3516 12.9767C41.3516 12.0887 41.6535 11.3447 42.2605 10.7438C42.8655 10.1428 43.6025 9.84277 44.4685 9.84277C44.8975 9.84277 45.3095 9.92677 45.6994 10.0948C46.0904 10.2628 46.4034 10.4858 46.6384 10.7648L46.1104 11.2927C45.7134 10.8178 45.1665 10.5808 44.4685 10.5808C43.8365 10.5808 43.2905 10.8028 42.8295 11.2467C42.3685 11.6907 42.1385 12.2677 42.1385 12.9767C42.1385 13.6866 42.3685 14.2636 42.8295 14.7076C43.2905 15.1516 43.8365 15.3736 44.4685 15.3736C45.1385 15.3736 45.6964 15.1506 46.1444 14.7036C46.4344 14.4126 46.6024 14.0076 46.6464 13.4886H44.4685V12.7677H47.3754C47.4034 12.9247 47.4174 13.0747 47.4174 13.2206Z" fill="white"/>
<path d="M47.4158 13.2211H47.3158C47.3148 14.0401 47.0758 14.675 46.5998 15.153L46.5988 15.154V15.155C46.0519 15.726 45.3499 16.01 44.4669 16.011C43.6239 16.01 42.9179 15.723 42.329 15.14C41.741 14.556 41.451 13.8431 41.45 12.9771C41.451 12.1111 41.741 11.3991 42.329 10.8151C42.9179 10.2322 43.6239 9.94416 44.4669 9.94316C44.8829 9.94316 45.2799 10.0242 45.6589 10.1872C46.0379 10.3501 46.3369 10.5641 46.5598 10.8291L46.6368 10.7651L46.5658 10.6941L46.0389 11.2221L46.1089 11.2931L46.1859 11.2291C45.7699 10.7301 45.1869 10.4791 44.4669 10.4811C43.8109 10.4801 43.2349 10.7141 42.7589 11.1751C42.277 11.6381 42.036 12.2471 42.037 12.9771C42.036 13.7081 42.277 14.317 42.7589 14.78C43.2349 15.241 43.8109 15.475 44.4669 15.474C45.1589 15.475 45.7489 15.24 46.2129 14.775C46.5228 14.464 46.6988 14.0331 46.7448 13.4971L46.7548 13.3891H44.5669V12.8681H47.3738V12.7681L47.2758 12.7861C47.3028 12.9371 47.3158 13.0811 47.3158 13.2211H47.5158C47.5158 13.0691 47.5018 12.9121 47.4718 12.7501L47.4578 12.6681H44.3669V13.5891H46.6448V13.4891L46.5458 13.4801C46.5018 13.9831 46.3419 14.362 46.0719 14.633C45.6419 15.061 45.1149 15.273 44.4669 15.274C43.8579 15.273 43.3429 15.064 42.8979 14.636C42.4569 14.21 42.238 13.6661 42.237 12.9771C42.238 12.2891 42.4569 11.7451 42.8979 11.3191C43.3429 10.8911 43.8579 10.6821 44.4669 10.6811C45.1429 10.6821 45.6529 10.9061 46.0329 11.3571L46.1029 11.4411L46.7068 10.8361L46.7718 10.7711L46.7128 10.7011C46.4668 10.4081 46.1399 10.1762 45.7379 10.0032C45.3349 9.83017 44.9089 9.74317 44.4669 9.74317C43.5769 9.74217 42.8099 10.0552 42.188 10.6731C41.564 11.2901 41.249 12.0661 41.25 12.9771C41.249 13.8881 41.564 14.664 42.188 15.282C42.8099 15.9 43.5779 16.212 44.4669 16.211C45.3919 16.212 46.1609 15.905 46.7428 15.293L46.6708 15.224L46.7418 15.294C47.2598 14.777 47.5168 14.0771 47.5158 13.2211H47.4158Z" fill="white"/>
<path d="M52.0263 10.7145H49.2943V12.6165H51.7583V13.3375H49.2943V15.2394H52.0263V15.9764H48.5234V9.97656H52.0263V10.7145Z" fill="white"/>
<path d="M52.0248 10.7149V10.6149H49.1929V12.7169H51.6568V13.2379H49.1929V15.3398H51.9248V15.8768H48.6219V10.0769H51.9248V10.7149H52.0248V10.6149V10.7149H52.1248V9.97695V9.87695H48.4219V16.0768H52.1248V15.2398V15.1398H49.3929V13.4379H51.8568V12.6169V12.5169H49.3929V10.8149H52.1248V10.7149H52.0248Z" fill="white"/>
<path d="M55.277 15.9764H54.506V10.7145H52.8301V9.97656H56.953V10.7145H55.277V15.9764Z" fill="white"/>
<path d="M55.2774 15.9768V15.8768H54.6064V10.6149H52.9305V10.0769H56.8534V10.6149H55.1774V15.9768H55.2774V15.8768V15.9768H55.3774V10.8149H57.0534V9.97695V9.87695H52.7305V10.8149H54.4064V16.0768H55.3774V15.9768H55.2774Z" fill="white"/>
<path d="M59.9359 16.0768H60.8059V9.87695H59.9359H59.8359V16.0768H59.9359Z" fill="white"/>
<path d="M64.1267 15.9764H63.3547V10.7145H61.6797V9.97656H65.8026V10.7145H64.1267V15.9764Z" fill="white"/>
<path d="M64.125 15.9768V15.8768H63.453V10.6149H61.7781V10.0769H65.701V10.6149H64.025V15.9768H64.125V15.8768V15.9768H64.225V10.8149H65.901V9.97695V9.87695H61.5781V10.8149H63.253V16.0768H64.225V15.9768H64.125Z" fill="white"/>
<path d="M69.7771 14.6996C70.2211 15.1486 70.7641 15.3736 71.4071 15.3736C72.0491 15.3736 72.5931 15.1486 73.0371 14.6996C73.4811 14.2496 73.704 13.6756 73.704 12.9767C73.704 12.2787 73.4811 11.7047 73.0371 11.2547C72.5931 10.8058 72.0491 10.5808 71.4071 10.5808C70.7641 10.5808 70.2211 10.8058 69.7771 11.2547C69.3332 11.7047 69.1112 12.2787 69.1112 12.9767C69.1112 13.6756 69.3332 14.2496 69.7771 14.6996ZM73.6071 15.2016C73.0171 15.8086 72.2841 16.1106 71.4071 16.1106C70.5301 16.1106 69.7961 15.8086 69.2082 15.2016C68.6182 14.5956 68.3242 13.8536 68.3242 12.9767C68.3242 12.0997 68.6182 11.3587 69.2082 10.7528C69.7961 10.1458 70.5301 9.84277 71.4071 9.84277C72.2791 9.84277 73.0101 10.1478 73.603 10.7568C74.195 11.3657 74.491 12.1057 74.491 12.9767C74.491 13.8536 74.196 14.5956 73.6071 15.2016Z" fill="white"/>
<path d="M69.7776 14.7L69.7066 14.77C70.1666 15.238 70.7415 15.475 71.4075 15.474C72.0735 15.475 72.6485 15.238 73.1085 14.77C73.5715 14.302 73.8055 13.6971 73.8045 12.9771C73.8055 12.2581 73.5715 11.6531 73.1085 11.1851C72.6485 10.7171 72.0735 10.4801 71.4075 10.4811C70.7415 10.4801 70.1666 10.7171 69.7066 11.1851C69.2436 11.6531 69.0106 12.2581 69.0116 12.9771C69.0106 13.6971 69.2436 14.302 69.7066 14.77L69.7776 14.7L69.8486 14.629C69.4246 14.198 69.2126 13.6551 69.2116 12.9771C69.2126 12.3001 69.4246 11.7571 69.8486 11.3251V11.3261C70.2766 10.8941 70.7875 10.6821 71.4075 10.6811C72.0265 10.6821 72.5385 10.8941 72.9655 11.3251V11.3261C73.3915 11.7571 73.6035 12.3001 73.6045 12.9771C73.6035 13.6551 73.3915 14.198 72.9655 14.629C72.5385 15.061 72.0265 15.273 71.4075 15.274C70.7875 15.273 70.2766 15.061 69.8486 14.629L69.7776 14.7ZM73.6075 15.202L73.5355 15.132C72.9625 15.72 72.2615 16.01 71.4075 16.011C70.5535 16.01 69.8516 15.72 69.2796 15.132L69.2766 15.13L69.2796 15.132C68.7076 14.543 68.4256 13.8321 68.4246 12.9771C68.4256 12.1231 68.7076 11.4121 69.2796 10.8231C69.8516 10.2352 70.5535 9.94416 71.4075 9.94316C72.2565 9.94416 72.9555 10.2362 73.5315 10.8271C74.1065 11.4191 74.3905 12.1281 74.3915 12.9771C74.3905 13.8321 74.1065 14.543 73.5355 15.132L73.6795 15.272C74.2855 14.649 74.5924 13.8771 74.5914 12.9771C74.5924 12.0831 74.2845 11.3131 73.6755 10.6871C73.0655 10.0602 72.3025 9.74217 71.4075 9.74317C70.5075 9.74217 69.7416 10.0582 69.1366 10.6831C68.5286 11.3061 68.2236 12.0781 68.2246 12.9771C68.2236 13.8771 68.5286 14.649 69.1366 15.272L69.1396 15.275L69.1366 15.272C69.7416 15.897 70.5075 16.212 71.4075 16.211C72.3075 16.212 73.0725 15.897 73.6795 15.272L73.6075 15.202Z" fill="white"/>
<path d="M75.5742 15.9764V9.97656H76.5122L79.4281 14.6444H79.4611L79.4281 13.4885V9.97656H80.2001V15.9764H79.3951L76.3442 11.0835H76.3112L76.3442 12.2395V15.9764H75.5742Z" fill="white"/>
<path d="M75.5727 15.9768H75.6727V10.0769H76.4557L79.3716 14.7448H79.5626L79.5266 13.4869V10.0769H80.0986V15.8768H79.4496L76.3987 10.9839H76.3097H76.2067L76.2427 12.2419V15.8768H75.5727V15.9768H75.6727H75.5727V16.0768H76.4427V12.2389L76.4097 11.0809L76.3097 11.0839V11.1839H76.3427V11.0839L76.2577 11.1369L79.3386 16.0768H80.2986V9.87695H79.4266H79.3266V13.4899L79.3596 14.6478L79.4596 14.6448V14.5449H79.4266V14.6448L79.5116 14.5919L76.5667 9.87695H75.5727H75.4727V16.0768H75.5727V15.9768Z" fill="white"/>
<path d="M106.932 32.9781H108.798V20.4764H106.932V32.9781ZM123.739 24.9793L121.6 30.3991H121.536L119.316 24.9793H117.306L120.635 32.5551L118.737 36.768H120.684L125.814 24.9793H123.739ZM113.157 31.5571C112.545 31.5571 111.693 31.2521 111.693 30.4961C111.693 29.5312 112.755 29.1612 113.671 29.1612C114.492 29.1612 114.877 29.3382 115.376 29.5792C115.231 30.7371 114.234 31.5571 113.157 31.5571ZM113.382 24.7063C112.031 24.7063 110.632 25.3013 110.053 26.6202L111.709 27.3122C112.063 26.6202 112.722 26.3952 113.414 26.3952C114.379 26.3952 115.36 26.9742 115.376 28.0032V28.1322C115.038 27.9392 114.315 27.6492 113.43 27.6492C111.645 27.6492 109.827 28.6302 109.827 30.4641C109.827 32.1361 111.291 33.2141 112.931 33.2141C114.186 33.2141 114.877 32.6511 115.312 31.9921H115.376V32.9571H117.177V28.1642C117.177 25.9442 115.521 24.7063 113.382 24.7063ZM101.85 26.5012H99.1966V22.2163H101.85C103.245 22.2163 104.037 23.3713 104.037 24.3593C104.037 25.3283 103.245 26.5012 101.85 26.5012ZM101.802 20.4764H97.3317V32.9781H99.1966V28.2412H101.802C103.87 28.2412 105.903 26.7442 105.903 24.3593C105.903 21.9733 103.87 20.4764 101.802 20.4764ZM77.4212 31.5601C76.1332 31.5601 75.0532 30.4801 75.0532 28.9982C75.0532 27.5002 76.1332 26.4052 77.4212 26.4052C78.6941 26.4052 79.6931 27.5002 79.6931 28.9982C79.6931 30.4801 78.6941 31.5601 77.4212 31.5601ZM79.5641 25.6803H79.5001C79.0811 25.1803 78.2751 24.7293 77.2602 24.7293C75.1342 24.7293 73.1843 26.5982 73.1843 28.9982C73.1843 31.3831 75.1342 33.2351 77.2602 33.2351C78.2751 33.2351 79.0811 32.7841 79.5001 32.2691H79.5641V32.8811C79.5641 34.508 78.6941 35.378 77.2922 35.378C76.1492 35.378 75.4402 34.556 75.1502 33.8641L73.5233 34.54C73.9902 35.668 75.2302 37.054 77.2922 37.054C79.4841 37.054 81.3361 35.765 81.3361 32.6231V24.9873H79.5641V25.6803ZM82.625 32.9781H84.494V20.4764H82.625V32.9781ZM87.2489 28.8532C87.1999 27.2102 88.5219 26.3722 89.4719 26.3722C90.2138 26.3722 90.8418 26.7432 91.0508 27.2752L87.2489 28.8532ZM93.0488 27.4362C92.6948 26.4852 91.6148 24.7293 89.4079 24.7293C87.2169 24.7293 85.396 26.4532 85.396 28.9822C85.396 31.3671 87.1999 33.2351 89.6169 33.2351C91.5668 33.2351 92.6948 32.0431 93.1618 31.3501L91.7118 30.3841C91.2288 31.0931 90.5678 31.5601 89.6169 31.5601C88.6659 31.5601 87.9899 31.1251 87.5549 30.2711L93.2418 27.9192L93.0488 27.4362ZM47.7409 26.0342V27.8382H52.0588C51.9298 28.8532 51.5918 29.5942 51.0758 30.1101C50.4478 30.7381 49.4649 31.4311 47.7409 31.4311C45.083 31.4311 43.005 29.2882 43.005 26.6302C43.005 23.9723 45.083 21.8294 47.7409 21.8294C49.1749 21.8294 50.2218 22.3933 50.9958 23.1183L52.2678 21.8454C51.1888 20.8144 49.7549 20.0254 47.7409 20.0254C44.1 20.0254 41.0391 22.9893 41.0391 26.6302C41.0391 30.2711 44.1 33.2351 47.7409 33.2351C49.7069 33.2351 51.1888 32.5911 52.3488 31.3831C53.5408 30.1901 53.9118 28.5152 53.9118 27.1622C53.9118 26.7432 53.8788 26.3562 53.8148 26.0342H47.7409ZM58.8196 31.5601C57.5307 31.5601 56.4197 30.4971 56.4197 28.9822C56.4197 27.4522 57.5307 26.4052 58.8196 26.4052C60.1086 26.4052 61.2196 27.4522 61.2196 28.9822C61.2196 30.4971 60.1086 31.5601 58.8196 31.5601ZM58.8196 24.7293C56.4677 24.7293 54.5507 26.5172 54.5507 28.9822C54.5507 31.4311 56.4677 33.2351 58.8196 33.2351C61.1716 33.2351 63.0885 31.4311 63.0885 28.9822C63.0885 26.5172 61.1716 24.7293 58.8196 24.7293ZM68.1324 31.5601C66.8444 31.5601 65.7325 30.4971 65.7325 28.9822C65.7325 27.4522 66.8444 26.4052 68.1324 26.4052C69.4214 26.4052 70.5333 27.4522 70.5333 28.9822C70.5333 30.4971 69.4214 31.5601 68.1324 31.5601ZM68.1324 24.7293C65.7805 24.7293 63.8635 26.5172 63.8635 28.9822C63.8635 31.4311 65.7805 33.2351 68.1324 33.2351C70.4853 33.2351 72.4023 31.4311 72.4023 28.9822C72.4023 26.5172 70.4853 24.7293 68.1324 24.7293Z" fill="white"/>
<path fill-rule="evenodd" clip-rule="evenodd" d="M10.5096 35.3663L10.4356 35.2953C10.1446 34.9873 9.97266 34.5093 9.97266 33.8903V34.0353V11.9199C9.97266 11.9189 9.97266 11.9169 9.97266 11.9149V12.0669C9.97266 11.3969 10.1736 10.8909 10.5086 10.5889L22.8983 22.9776L10.5096 35.3663ZM9.97266 11.9139C9.97266 11.8589 9.97466 11.8049 9.97666 11.7529C9.97466 11.8049 9.97266 11.8589 9.97266 11.9139Z" fill="url(#paint0_linear_0_8780)"/>
<path fill-rule="evenodd" clip-rule="evenodd" d="M27.0254 27.2555L27.1194 27.2015L32.0123 24.4216C32.4793 24.1566 32.7903 23.8356 32.9453 23.4946C32.7903 23.8356 32.4793 24.1566 32.0123 24.4226L27.1194 27.2025L27.0254 27.2555ZM27.0264 27.1085L22.8965 22.9776L27.0264 18.8477L32.0123 21.6806C32.6463 22.0396 33.0013 22.5036 33.0603 22.9776C33.0603 22.9776 33.0603 22.9786 33.0603 22.9796C33.0013 23.4516 32.6463 23.9156 32.0123 24.2756L27.0264 27.1085Z" fill="url(#paint1_linear_0_8780)"/>
<path fill-rule="evenodd" clip-rule="evenodd" d="M11.3908 35.8382C11.0448 35.8382 10.7438 35.7252 10.5078 35.5132V35.5122C10.7438 35.7252 11.0458 35.8382 11.3918 35.8382C11.4218 35.8382 11.4528 35.8372 11.4838 35.8352C11.4528 35.8372 11.4218 35.8382 11.3908 35.8382ZM11.3918 35.6912C11.0458 35.6922 10.7438 35.5792 10.5078 35.3662L22.8965 22.9775L27.0264 27.1084L12.5118 35.3562C12.1108 35.5842 11.7298 35.6912 11.3918 35.6912Z" fill="url(#paint2_linear_0_8780)"/>
<path fill-rule="evenodd" clip-rule="evenodd" d="M22.8974 22.9769L10.5078 10.5882C10.7437 10.3762 11.0447 10.2632 11.3907 10.2632C11.7297 10.2632 12.1107 10.3712 12.5127 10.6002L27.0273 18.847L22.8974 22.9769ZM27.1203 18.754L12.5127 10.4542C12.1107 10.2252 11.7297 10.1172 11.3907 10.1172C11.3897 10.1172 11.3877 10.1172 11.3867 10.1172C11.3877 10.1172 11.3897 10.1172 11.3917 10.1172C11.7307 10.1172 12.1107 10.2252 12.5127 10.4532L27.1203 18.753V18.754Z" fill="url(#paint3_linear_0_8780)"/>
<path fill-rule="evenodd" clip-rule="evenodd" d="M11.4844 35.8357C11.7984 35.8177 12.1464 35.7097 12.5124 35.5027L27.026 27.2559L12.5124 35.5027C12.1464 35.7107 11.7984 35.8187 11.4844 35.8357Z" fill="black"/>
<path fill-rule="evenodd" clip-rule="evenodd" d="M27.0273 27.2552L27.1213 27.2012L27.0273 27.2552Z" fill="url(#paint4_linear_0_8780)"/>
<path fill-rule="evenodd" clip-rule="evenodd" d="M11.3916 35.8382C11.0456 35.8382 10.7436 35.7252 10.5076 35.5122V35.5132C10.5066 35.5122 10.5056 35.5112 10.5046 35.5102L10.4396 35.4472C10.4376 35.4452 10.4356 35.4432 10.4336 35.4412L10.5076 35.3662C10.7436 35.5792 11.0456 35.6922 11.3916 35.6912C11.7296 35.6912 12.1106 35.5842 12.5116 35.3562L27.0262 27.1084L27.1192 27.2014L27.0252 27.2554L12.5116 35.5022C12.1456 35.7092 11.7976 35.8172 11.4836 35.8352C11.4526 35.8372 11.4216 35.8382 11.3916 35.8382Z" fill="url(#paint5_linear_0_8780)"/>
<path fill-rule="evenodd" clip-rule="evenodd" d="M10.4356 35.4412C10.1446 35.1332 9.97266 34.6552 9.97266 34.0362V34.0352C9.97266 34.6552 10.1446 35.1332 10.4356 35.4402V35.4412Z" fill="black"/>
<path fill-rule="evenodd" clip-rule="evenodd" d="M10.4336 35.4412V35.4402L10.5076 35.3662L10.4336 35.4412Z" fill="url(#paint6_linear_0_8780)"/>
<path fill-rule="evenodd" clip-rule="evenodd" d="M32.9453 23.4944C33.0223 23.3264 33.0603 23.1524 33.0603 22.9795C33.0603 22.9785 33.0613 22.9785 33.0613 22.9785C33.0613 23.1524 33.0223 23.3254 32.9453 23.4944Z" fill="black"/>
<path fill-rule="evenodd" clip-rule="evenodd" d="M27.1203 27.2014L27.0273 27.1084L32.0132 24.2755C32.6472 23.9155 33.0022 23.4515 33.0612 22.9795C33.0612 23.1525 33.0232 23.3265 32.9462 23.4945C32.7912 23.8355 32.4802 24.1565 32.0132 24.4215L27.1203 27.2014Z" fill="url(#paint7_linear_0_8780)"/>
<path d="M33.063 22.9778H33.062C33.062 22.4548 32.713 21.9318 32.014 21.5348L27.1211 18.7549V18.7539L32.014 21.5348C32.713 21.9318 33.063 22.4548 33.063 22.9778Z" fill="#404040"/>
<path fill-rule="evenodd" clip-rule="evenodd" d="M33.0612 22.9778C33.0022 22.5038 32.6472 22.0398 32.0132 21.6808L27.0273 18.8479L27.1203 18.7549L32.0132 21.5348C32.7122 21.9318 33.0612 22.4548 33.0612 22.9778Z" fill="url(#paint8_linear_0_8780)"/>
<path d="M9.97656 11.7412C10.0345 10.7142 10.5925 10.1212 11.3825 10.1172C11.0405 10.1192 10.7425 10.2312 10.5085 10.4422L10.5055 10.4452C10.4815 10.4672 10.4575 10.4902 10.4345 10.5142C10.1725 10.7922 10.0065 11.2082 9.97656 11.7412Z" fill="#404040"/>
<path fill-rule="evenodd" clip-rule="evenodd" d="M9.97266 12.0666V11.9206C9.97266 11.9186 9.97266 11.9166 9.97266 11.9146V11.9136C9.97266 11.8586 9.97466 11.8046 9.97666 11.7526C9.97766 11.7516 9.97766 11.7506 9.97766 11.7496C9.97766 11.7496 9.97766 11.7486 9.97766 11.7476C9.97766 11.7466 9.97766 11.7446 9.97766 11.7426V11.7416C10.0076 11.2087 10.1736 10.7926 10.4356 10.5146L10.5086 10.5886C10.1736 10.8906 9.97266 11.3966 9.97266 12.0666Z" fill="url(#paint9_linear_0_8780)"/>
<path fill-rule="evenodd" clip-rule="evenodd" d="M27.0262 18.847L12.5116 10.6002C12.1096 10.3712 11.7286 10.2632 11.3896 10.2632C11.0436 10.2632 10.7426 10.3762 10.5066 10.5882L10.4336 10.5142C10.4566 10.4902 10.4806 10.4672 10.5046 10.4452C10.5056 10.4442 10.5066 10.4432 10.5076 10.4422C10.7416 10.2312 11.0396 10.1192 11.3816 10.1172H11.3896C11.7286 10.1172 12.1096 10.2252 12.5116 10.4542L27.1192 18.754L27.0262 18.847Z" fill="url(#paint10_linear_0_8780)"/>
</g>
<defs>
<linearGradient id="paint0_linear_0_8780" x1="17.8954" y1="11.6866" x2="7.22085" y2="1.01195" gradientUnits="userSpaceOnUse">
<stop stop-color="#00A0FF"/>
<stop offset="1" stop-color="#00E2FF"/>
</linearGradient>
<linearGradient id="paint1_linear_0_8780" x1="33.8327" y1="22.978" x2="9.63625" y2="22.978" gradientUnits="userSpaceOnUse">
<stop stop-color="#FFDF00"/>
<stop offset="1" stop-color="#FF9C00"/>
</linearGradient>
<linearGradient id="paint2_linear_0_8780" x1="24.8345" y1="26.9012" x2="6.65158" y2="8.64345" gradientUnits="userSpaceOnUse">
<stop stop-color="#FF3A44"/>
<stop offset="1" stop-color="#C31162"/>
</linearGradient>
<linearGradient id="paint3_linear_0_8780" x1="7.29714" y1="8.5208" x2="15.423" y2="0.394971" gradientUnits="userSpaceOnUse">
<stop stop-color="#31A070"/>
<stop offset="1" stop-color="#00EF75"/>
</linearGradient>
<linearGradient id="paint4_linear_0_8780" x1="27.7098" y1="26.9986" x2="25.4354" y2="26.9986" gradientUnits="userSpaceOnUse">
<stop stop-color="#CCB300"/>
<stop offset="1" stop-color="#CC7C00"/>
</linearGradient>
<linearGradient id="paint5_linear_0_8780" x1="24.8253" y1="29.776" x2="10.3317" y2="15.2823" gradientUnits="userSpaceOnUse">
<stop stop-color="#CC2D36"/>
<stop offset="1" stop-color="#9C0E4D"/>
</linearGradient>
<linearGradient id="paint6_linear_0_8780" x1="11.5329" y1="34.6439" x2="9.82624" y2="32.9599" gradientUnits="userSpaceOnUse">
<stop stop-color="#DF333B"/>
<stop offset="1" stop-color="#AA0E56"/>
</linearGradient>
<linearGradient id="paint7_linear_0_8780" x1="33.8336" y1="22.9779" x2="9.63723" y2="22.9779" gradientUnits="userSpaceOnUse">
<stop stop-color="#DFC400"/>
<stop offset="1" stop-color="#DF8900"/>
</linearGradient>
<linearGradient id="paint8_linear_0_8780" x1="33.8336" y1="22.9782" x2="9.63723" y2="22.9782" gradientUnits="userSpaceOnUse">
<stop stop-color="#FFE83F"/>
<stop offset="1" stop-color="#FFB53F"/>
</linearGradient>
<linearGradient id="paint9_linear_0_8780" x1="12.7613" y1="11.7032" x2="3.29533" y2="6.85437" gradientUnits="userSpaceOnUse">
<stop stop-color="#3FB8FF"/>
<stop offset="1" stop-color="#3FE9FF"/>
</linearGradient>
<linearGradient id="paint10_linear_0_8780" x1="7.29599" y1="11.3808" x2="13.768" y2="4.90885" gradientUnits="userSpaceOnUse">
<stop stop-color="#64B895"/>
<stop offset="1" stop-color="#3FF497"/>
</linearGradient>
<clipPath id="clip0_0_8780">
<rect width="135" height="44" fill="white" transform="translate(0 0.976562)"/>
</clipPath>
</defs>
</svg>
