<svg width="25" height="26" viewBox="0 0 25 26" fill="none" xmlns="http://www.w3.org/2000/svg">
<path d="M21.4423 0.976562H3.55769C1.53846 0.976562 0 2.51502 0 4.53426V22.4189C0 24.4381 1.53846 25.9766 3.55769 25.9766H21.4423C23.4615 25.9766 25 24.4381 25 22.4189V4.53426C25 2.51502 23.4615 0.976562 21.4423 0.976562ZM12.5 20.9766C16.6346 20.9766 20 17.7073 20 13.765C20 13.0919 19.9038 12.3227 19.7115 11.7458H21.8269V21.9381C21.8269 22.4189 21.4423 22.8996 20.8654 22.8996H4.13462C3.65385 22.8996 3.17308 22.515 3.17308 21.9381V11.6496H5.38462C5.19231 12.3227 5.09616 12.9958 5.09616 13.6689C5 17.7073 8.36538 20.9766 12.5 20.9766ZM12.5 18.0919C9.80769 18.0919 7.69231 15.9766 7.69231 13.3804C7.69231 10.7843 9.80769 8.66887 12.5 8.66887C15.1923 8.66887 17.3077 10.7843 17.3077 13.3804C17.3077 16.0727 15.1923 18.0919 12.5 18.0919ZM21.7308 7.80348C21.7308 8.38041 21.25 8.86118 20.6731 8.86118H17.9808C17.4038 8.86118 16.9231 8.38041 16.9231 7.80348V5.20733C16.9231 4.63041 17.4038 4.14964 17.9808 4.14964H20.6731C21.25 4.14964 21.7308 4.63041 21.7308 5.20733V7.80348Z" fill="black"/>
</svg>
