<svg width="25" height="23" viewBox="0 0 25 23" fill="none" xmlns="http://www.w3.org/2000/svg">
<path d="M0.438376 11.4442L6.186 13.5873L8.42658 20.7962C8.524 21.2833 9.1085 21.3807 9.49817 21.0884L12.7129 18.4582C13.0052 18.1659 13.4923 18.1659 13.8819 18.4582L19.6295 22.6471C20.0192 22.9394 20.6037 22.7445 20.7011 22.2574L24.9875 1.79988C25.0849 1.3128 24.5978 0.825717 24.1107 1.02055L0.438376 10.1777C-0.146125 10.3726 -0.146125 11.2493 0.438376 11.4442ZM8.13434 12.5157L19.4347 5.59914C19.6295 5.50173 19.8244 5.79398 19.6295 5.8914L10.3749 14.5615C10.0827 14.8538 9.79041 15.2434 9.79041 15.7305L9.49817 18.0685C9.49817 18.3608 9.01108 18.4582 8.91366 18.0685L7.74465 13.7822C7.4524 13.2951 7.64725 12.7106 8.13434 12.5157Z" fill="white"/>
</svg>
