<svg width="25" height="22" viewBox="0 0 25 22" fill="none" xmlns="http://www.w3.org/2000/svg">
<path d="M25 3.4777C24.1071 3.87262 23.0868 4.1359 22.0663 4.26754C23.0868 3.60935 23.9796 2.55624 24.3622 1.37148C23.3418 2.02968 22.3214 2.4246 21.0459 2.68788C20.1531 1.63476 18.75 0.976562 17.3469 0.976562C14.5408 0.976562 12.2449 3.34607 12.2449 6.24213C12.2449 6.63705 12.2449 7.03196 12.3725 7.42687C8.16327 7.16359 4.33673 5.05737 1.78571 1.89803C1.40305 2.68787 1.14795 3.60934 1.14795 4.53082C1.14795 6.37376 2.04081 7.95344 3.44388 8.87491C2.55102 8.87491 1.78571 8.61163 1.14795 8.21672C1.14795 10.7179 2.93366 12.9557 5.22958 13.3506C4.84693 13.4823 4.33674 13.4823 3.82653 13.4823C3.44388 13.4823 3.18877 13.4823 2.80612 13.3506C3.44388 15.4569 5.35715 17.0365 7.65306 17.0365C5.86735 18.4846 3.69898 19.2744 1.27551 19.2744C0.892858 19.2744 0.510204 19.2744 0 19.1428C2.29592 20.5908 4.97449 21.5123 7.90816 21.5123C17.3469 21.5123 22.449 13.4823 22.449 6.5054V5.84721C23.4694 5.45229 24.3622 4.53081 25 3.4777Z" fill="black"/>
</svg>
