<svg width="25" height="20" viewBox="0 0 25 20" fill="none" xmlns="http://www.w3.org/2000/svg">
<path d="M25 7.91086C25 7.36342 24.9088 6.72474 24.9088 5.99481C24.8175 5.26488 24.7263 4.53495 24.635 3.89627C24.4526 3.16634 24.1788 2.6189 23.6314 2.1627C23.1752 1.70649 22.5365 1.43276 21.8978 1.34152C19.7993 1.0678 16.6971 0.976562 12.5 0.976562C8.30293 0.976562 5.10948 1.0678 3.10218 1.34152C2.4635 1.43276 1.82482 1.70649 1.36861 2.1627C0.912409 2.6189 0.54744 3.16634 0.364958 3.89627C0.182476 4.53495 0.0912465 5.17364 0.0912465 5.99481C5.56754e-06 6.72474 0 7.36342 0 7.91086C0 8.45831 0 9.097 0 10.0094C0 10.9218 0 11.6517 0 12.1079C0 12.6554 0.0912465 13.2941 0.0912465 14.024C0.182487 14.7539 0.273717 15.4839 0.364958 16.1225C0.54744 16.8525 0.821168 17.3999 1.36861 17.8561C1.82482 18.3123 2.4635 18.5861 3.10218 18.6773C5.20073 18.951 8.30293 19.0423 12.5 19.0423C16.6971 19.0423 19.8905 18.951 21.8978 18.6773C22.5365 18.5861 23.1752 18.3123 23.6314 17.8561C24.0876 17.3999 24.4526 16.8525 24.635 16.1225C24.8175 15.4839 24.9088 14.8452 24.9088 14.024C25 13.2941 25 12.6554 25 12.1079C25 11.5605 25 10.9218 25 10.0094C25 9.097 25 8.36707 25 7.91086ZM17.3358 10.7393L10.1277 15.2101C10.0365 15.3014 9.85402 15.3926 9.67154 15.3926C9.48906 15.3926 9.39782 15.3926 9.21534 15.3014C8.94161 15.1189 8.75913 14.8452 8.75913 14.4802V5.44736C8.75913 5.0824 8.94161 4.80868 9.21534 4.6262C9.48906 4.44372 9.85402 4.44372 10.1277 4.6262L17.3358 9.097C17.6095 9.27948 17.792 9.5532 17.792 9.82693C17.792 10.1006 17.6095 10.5569 17.3358 10.7393Z" fill="white"/>
</svg>
