<svg width="215" height="92" viewBox="0 0 215 92" fill="none" xmlns="http://www.w3.org/2000/svg">
<path d="M111.642 58.0885C109.435 58.0885 107.559 57.7574 106.014 57.0952C104.469 56.433 103.255 55.4397 102.427 54.1152C101.599 52.7908 101.213 51.1353 101.213 49.1487C101.213 47.1621 101.599 45.5066 102.427 44.1822C103.255 42.8578 104.413 41.8645 106.014 41.2023C107.559 40.5401 109.435 40.209 111.642 40.209C113.022 40.209 114.291 40.3745 115.45 40.6505C116.609 40.9264 117.657 41.3678 118.54 41.9749C119.423 42.5819 120.141 43.2993 120.637 44.1822C121.134 45.0651 121.355 46.0584 121.355 47.2173H116.885C116.885 46.4447 116.664 45.7825 116.167 45.2859C115.671 44.734 115.064 44.3478 114.236 44.0718C113.463 43.7959 112.581 43.6856 111.642 43.6856C110.428 43.6856 109.38 43.9063 108.552 44.2926C107.669 44.6789 107.007 45.2307 106.566 46.0033C106.124 46.7758 105.848 47.7139 105.848 48.8176V49.4798C105.848 50.5835 106.069 51.5216 106.566 52.2942C107.062 53.0668 107.724 53.6186 108.607 54.0601C109.49 54.4463 110.594 54.6671 111.808 54.6671C112.746 54.6671 113.574 54.5015 114.402 54.2256C115.174 53.9497 115.836 53.5082 116.333 52.9564C116.83 52.4046 117.05 51.7975 117.05 51.025H121.355C121.355 52.1838 121.079 53.2323 120.582 54.1152C120.085 54.9982 119.368 55.7156 118.485 56.3226C117.602 56.9296 116.554 57.3159 115.395 57.647C114.291 57.9229 113.022 58.0885 111.642 58.0885Z" fill="#5CB24A"/>
<path d="M135.261 58.0899C133.054 58.0899 131.178 57.7588 129.577 57.1518C127.977 56.4896 126.763 55.5515 125.935 54.2271C125.052 52.9027 124.666 51.2472 124.666 49.2054C124.666 47.2188 125.107 45.5633 125.935 44.2389C126.763 42.9144 127.977 41.9211 129.577 41.2589C131.122 40.5967 132.999 40.2656 135.151 40.2656C137.413 40.2656 139.289 40.5967 140.835 41.2589C142.38 41.9211 143.539 42.8593 144.311 44.1285C145.084 45.3977 145.47 46.9428 145.47 48.7087V50.2539H129.301C129.357 51.3023 129.632 52.1301 130.184 52.7923C130.681 53.4545 131.398 53.896 132.281 54.1719C133.164 54.4478 134.213 54.6134 135.371 54.6134C135.868 54.6134 136.365 54.5582 136.972 54.4478C137.579 54.3374 138.131 54.1719 138.682 53.9512C139.234 53.7304 139.676 53.4545 140.062 53.0682C140.448 52.7371 140.669 52.2956 140.724 51.7438H145.249C145.249 52.6268 145.028 53.3993 144.587 54.1719C144.146 54.9445 143.483 55.6067 142.656 56.1585C141.773 56.7103 140.724 57.1518 139.51 57.4829C138.241 57.9244 136.861 58.0899 135.261 58.0899ZM129.301 47.3291H140.724C140.724 46.7221 140.559 46.1703 140.283 45.7288C140.007 45.2873 139.565 44.9011 139.069 44.6251C138.572 44.3492 137.965 44.1285 137.303 43.9629C136.641 43.7974 135.923 43.7422 135.151 43.7422C134.047 43.7422 133.054 43.8526 132.226 44.1285C131.398 44.4044 130.681 44.7907 130.184 45.3425C129.688 45.8944 129.412 46.5566 129.301 47.3291Z" fill="#5CB24A"/>
<path d="M181.946 58.0899C179.794 58.0899 177.917 57.7588 176.317 57.0966C174.772 56.4344 173.558 55.4411 172.73 54.1167C171.902 52.7923 171.461 51.1368 171.461 49.2054C171.461 47.2188 171.902 45.5633 172.73 44.2389C173.558 42.9144 174.772 41.9211 176.317 41.2589C177.862 40.5967 179.738 40.2656 181.946 40.2656C184.098 40.2656 185.974 40.5967 187.574 41.2589C189.119 41.9211 190.333 42.9144 191.161 44.2389C191.989 45.5633 192.43 47.2188 192.43 49.2054C192.43 51.192 191.989 52.7923 191.161 54.1167C190.333 55.4411 189.119 56.4344 187.574 57.0966C186.029 57.7588 184.153 58.0899 181.946 58.0899ZM181.946 54.6134C183.16 54.6134 184.208 54.3926 185.036 54.0063C185.919 53.6201 186.581 53.013 187.023 52.2405C187.464 51.4679 187.74 50.5298 187.74 49.4261V48.7639C187.74 47.6602 187.519 46.7221 187.023 45.9495C186.581 45.177 185.919 44.6251 185.036 44.2389C184.153 43.8526 183.105 43.6318 181.946 43.6318C180.732 43.6318 179.683 43.8526 178.855 44.2389C177.973 44.6251 177.31 45.177 176.869 45.9495C176.427 46.7221 176.151 47.6602 176.151 48.7639V49.4261C176.151 50.5298 176.372 51.4679 176.869 52.2405C177.31 53.013 177.973 53.5649 178.855 54.0063C179.738 54.3926 180.787 54.6134 181.946 54.6134Z" fill="#5CB24A"/>
<path d="M196.293 57.7031V40.7066H200.211V43.6313H200.487C201.094 42.8036 201.811 42.1414 202.639 41.6447C203.412 41.1481 204.294 40.817 205.177 40.6514C206.06 40.4307 206.943 40.3203 207.771 40.3203C209.371 40.3203 210.696 40.541 211.744 41.0377C212.793 41.5344 213.62 42.3069 214.172 43.3002C214.724 44.2935 215 45.6179 215 47.1631V57.7031H210.53V47.9357C210.53 47.2183 210.42 46.6112 210.199 46.0594C209.978 45.5628 209.702 45.1765 209.316 44.8454C208.93 44.5694 208.488 44.3487 207.937 44.1832C207.385 44.0728 206.833 43.9624 206.171 43.9624C205.233 43.9624 204.35 44.1832 203.522 44.5694C202.694 44.9557 202.032 45.5076 201.48 46.1698C200.984 46.832 200.708 47.6597 200.708 48.5979V57.648H196.293V57.7031Z" fill="#5CB24A"/>
<path d="M155.403 40.6508V38.4986C155.403 38.1675 155.679 37.8916 156.01 37.8916H160.259V34.3047H154.851C152.699 34.3047 150.988 36.0154 150.988 38.1675V40.6508H147.512V44.1274H150.988V57.7025H155.458V44.1274H163.184V40.6508H155.403Z" fill="#5CB24A"/>
<path d="M167.653 40.6504H163.184V57.6469H167.653V40.6504Z" fill="#5CB24A"/>
<path d="M167.653 34.3047H163.184V37.8916H167.653V34.3047Z" fill="#5CB24A"/>
<path d="M31.125 3.57227L26.7659 9.32647L21.0117 8.5418L24.4119 6.36218L30.8635 3.65945L31.125 3.57227Z" fill="#5CB24A"/>
<path d="M21.8833 48.3842L13.2522 41.3222L12.5547 27.8086L19.7037 24.6699L21.8833 48.3842Z" fill="#4B923D"/>
<path d="M13.2526 41.3223L9.24219 33.9115L12.5552 27.8086L13.2526 41.3223Z" fill="#5CB24A"/>
<path d="M12.5545 27.8073L9.24153 33.9102L3.13867 25.7148L12.5545 27.8073Z" fill="#529F42"/>
<path d="M15.6931 14.7301L12.5545 27.8078L3.13862 25.7154L0 23.4486L15.2572 12.0273L15.6931 14.7301Z" fill="#5CB24A"/>
<path d="M21.0119 8.53906L20.576 13.5958L15.6937 14.7292L15.2578 12.0265L21.0119 8.53906Z" fill="#4B923D"/>
<path d="M43.592 47.8623V47.9495L35.2224 45.4211L28.6836 40.9747L29.817 38.3591L31.735 34.0871V33.9999L33.6531 29.6406L43.592 47.8623Z" fill="#5CB24A"/>
<path d="M35.2224 45.421L33.3915 45.5954L28.6836 42.8055V40.9746L35.2224 45.421Z" fill="#2E6126"/>
<path d="M35.57 49.7794L34.0879 48.7332V46.9023L35.3085 47.1639L35.57 49.7794Z" fill="#2E6126"/>
<path d="M43.5923 60.6773L37.2279 67.9136L35.5714 49.7792L35.3098 47.1636L35.2227 45.4199L43.5923 60.6773Z" fill="#5CB24A"/>
<path d="M43.591 82.9971L38.2728 80.2071V80.12L37.2266 67.9141L43.591 82.9971Z" fill="#4B923D"/>
<path d="M43.5916 82.9969V91.8898L39.494 88.4896L38.2734 80.207L43.5916 82.9969Z" fill="#5CB24A"/>
<path d="M43.5923 0.519531L32.6071 4.53004L31.125 3.571L41.7614 0.519531H43.5923Z" fill="#529F42"/>
<path d="M43.5923 0.519531V10.0227L25.1094 15.8641L26.2428 14.1204L32.6072 4.53004L43.5923 0.519531Z" fill="#5CB24A"/>
<path d="M43.5904 10.0215V29.7253L33.6515 29.6381L32.3438 18.304L43.5904 10.0215Z" fill="#5CB24A"/>
<path d="M43.5913 29.7278V47.8623L33.6523 29.6406L43.5913 29.7278Z" fill="#529F42"/>
<path d="M43.591 60.6758V82.9951L37.2266 67.9121L43.591 60.6758Z" fill="#529F42"/>
<path d="M43.5923 47.9483V60.6773L35.2227 45.4199L43.5923 47.9483Z" fill="#4B923D"/>
<path d="M33.6524 29.6392L31.7344 33.9985L32.3447 29.4648L33.6524 29.6392Z" fill="#4B923D"/>
<path d="M31.7344 34.0862L29.8164 38.3582L31.3857 33.3887L31.7344 34.0862Z" fill="#2E6126"/>
<path d="M31.3858 33.3887L29.8165 38.3582L29.3806 37.9223L21.8828 48.3845L31.3858 33.3887Z" fill="#2E6126"/>
<path d="M31.3857 33.3885L21.8827 48.3844L19.7031 24.6701L25.2829 18.6543L25.5444 21.8801L31.3857 33.3885Z" fill="#529F42"/>
<path d="M25.2829 18.6525L19.7031 24.6683L20.575 13.5958L21.0109 8.53906L25.1085 15.8626L25.2829 18.6525Z" fill="#5CB24A"/>
<path d="M32.6066 4.5313L26.2422 14.1216L26.7653 9.32647L31.1245 3.57227L32.6066 4.5313Z" fill="#4B923D"/>
<path d="M20.5756 13.5977L19.7037 24.6701L12.5547 27.8088L15.6933 14.7311L20.5756 13.5977Z" fill="#529F42"/>
<path d="M32.3453 29.4642L31.735 33.9978V34.085L28.6836 22.1406L32.3453 29.4642Z" fill="#5CB24A"/>
<path d="M31.7353 34.0849L31.3866 33.3874L25.5453 21.879L25.2837 18.6532L25.1094 15.8633L28.0736 20.6585L26.7659 21.4431L28.6839 22.1406L31.7353 34.0849Z" fill="#4B923D"/>
<path d="M29.3811 20.5723L28.1606 21.4441H26.7656L28.0734 20.6595L29.3811 20.5723Z" fill="#3C7731"/>
<path d="M29.991 22.4903L28.1602 21.4441L29.3807 20.5723L29.991 22.4903Z" fill="#3C7731"/>
<path d="M26.7658 9.32373L26.2427 14.1189L25.1094 15.8626L21.0117 8.53906L26.7658 9.32373Z" fill="#529F42"/>
<path d="M43.5923 10.0215L32.3456 18.3041L25.1094 15.8629L43.5923 10.0215Z" fill="#4B923D"/>
<path d="M29.9914 22.4896L28.6837 22.1408L26.7656 21.4434H28.1606L29.9914 22.4896Z" fill="#2E6126"/>
<path d="M32.3456 18.3045L29.3814 20.5713L28.0736 20.6585L25.1094 15.8633L32.3456 18.3045Z" fill="#5CB24A"/>
<path d="M33.6531 29.6387L32.3453 29.4644L28.6836 22.1408L29.9913 22.4896L29.3811 20.5715L32.3453 18.3047L33.6531 29.6387Z" fill="#529F42"/>
<path d="M30.6865 67.9141L29.7275 81.079L29.1172 71.0527L30.6865 67.9141Z" fill="#EDEDED"/>
<path d="M34.0867 48.7324L30.6865 67.9131L29.1172 71.0518L29.2916 58.7587L34.0867 48.7324Z" fill="#DADADA"/>
<path d="M34.0881 46.9015V48.7324L29.293 58.7587L33.3906 45.5938L34.0881 46.9015Z" fill="#DADADA"/>
<path d="M29.7297 81.0771L26.5039 70.0918L29.1194 71.0508L29.7297 81.0771Z" fill="white"/>
<path d="M29.2938 58.7592L29.1194 71.0522L26.5039 70.0932L27.2014 56.7539L29.2938 58.7592Z" fill="white"/>
<path d="M29.7295 43.502L29.2936 58.7593L27.2012 56.7541L29.7295 43.502Z" fill="white"/>
<path d="M35.3087 47.1636L34.0881 46.9021L33.3906 45.5943L35.2215 45.4199L35.3087 47.1636Z" fill="#376F2D"/>
<path d="M29.7289 43.502L29.293 58.7593L33.3906 45.5944L29.7289 43.502Z" fill="#EDEDED"/>
<path d="M56.0586 3.57227L60.4178 9.32647L66.1719 8.5418L62.7717 6.36218L56.3201 3.65945L56.0586 3.57227Z" fill="#5CB24A"/>
<path d="M65.2129 48.3842L73.9313 41.3222L74.6287 27.8086L67.3925 24.6699L65.2129 48.3842Z" fill="#4B923D"/>
<path d="M73.9316 41.3223L77.8549 33.9115L74.6291 27.8086L73.9316 41.3223Z" fill="#5CB24A"/>
<path d="M74.6289 27.8073L77.8547 33.9102L84.0447 25.7148L74.6289 27.8073Z" fill="#529F42"/>
<path d="M71.4043 14.7301L74.6301 27.8078L84.0459 25.7154L87.1846 23.4486L71.8402 12.0273L71.4043 14.7301Z" fill="#5CB24A"/>
<path d="M66.1719 8.53906L66.5206 13.5958L71.4029 14.7292L71.8388 12.0265L66.1719 8.53906Z" fill="#4B923D"/>
<path d="M43.5938 47.8623V47.9495L51.9634 45.4211L58.5022 40.9747L57.2816 38.3591L55.4507 34.0871V33.9999L53.5327 29.6406L43.5938 47.8623Z" fill="#5CB24A"/>
<path d="M51.9609 45.421L53.7918 45.5954L58.4997 42.8055V40.9746L51.9609 45.421Z" fill="#2E6126"/>
<path d="M51.6133 49.7794L53.0082 48.7332V46.9023L51.7876 47.1639L51.6133 49.7794Z" fill="#2E6126"/>
<path d="M43.5938 60.6773L49.9582 67.9136L51.6147 49.7792L51.789 47.1636L51.9634 45.4199L43.5938 60.6773Z" fill="#5CB24A"/>
<path d="M43.5938 82.9971L48.8248 80.2071V80.12L49.9582 67.9141L43.5938 82.9971Z" fill="#4B923D"/>
<path d="M43.5938 82.9969V91.8898L47.6914 88.4896L48.8248 80.207L43.5938 82.9969Z" fill="#5CB24A"/>
<path d="M43.5938 0.519531L54.4917 4.53004L56.061 3.571L45.3374 0.519531H43.5938Z" fill="#529F42"/>
<path d="M43.5938 0.519531V10.0227L62.0767 15.8641L60.8561 14.1204L54.4917 4.53004L43.5938 0.519531Z" fill="#5CB24A"/>
<path d="M43.5938 10.0215V29.7253L53.5327 29.6381L54.7533 18.304L43.5938 10.0215Z" fill="#5CB24A"/>
<path d="M43.5938 29.7278V47.8623L53.5327 29.6406L43.5938 29.7278Z" fill="#529F42"/>
<path d="M43.5938 60.6758V82.9951L49.9582 67.9121L43.5938 60.6758Z" fill="#529F42"/>
<path d="M43.5938 47.9483V60.6773L51.9634 45.4199L43.5938 47.9483Z" fill="#4B923D"/>
<path d="M53.5312 29.6392L55.4493 33.9985L54.7518 29.4648L53.5312 29.6392Z" fill="#4B923D"/>
<path d="M55.4492 34.0862L57.2801 38.3582L55.798 33.3887L55.4492 34.0862Z" fill="#2E6126"/>
<path d="M55.7969 33.3887L57.279 38.3582L57.8021 37.9223L65.2127 48.3845L55.7969 33.3887Z" fill="#2E6126"/>
<path d="M55.7969 33.3885L65.2127 48.3844L67.3923 24.6701L61.8126 18.6543L61.551 21.8801L55.7969 33.3885Z" fill="#529F42"/>
<path d="M61.8125 18.6525L67.3923 24.6683L66.5204 13.5958L66.1717 8.53906L62.0741 15.8626L61.8125 18.6525Z" fill="#5CB24A"/>
<path d="M54.4883 4.5313L60.8527 14.1216L60.4168 9.32647L56.0576 3.57227L54.4883 4.5313Z" fill="#4B923D"/>
<path d="M66.5215 13.5977L67.3933 24.6701L74.6296 27.8088L71.4038 14.7311L66.5215 13.5977Z" fill="#529F42"/>
<path d="M54.7539 29.4642L55.4514 33.9978V34.085L58.4156 22.1406L54.7539 29.4642Z" fill="#5CB24A"/>
<path d="M55.4492 34.0849L55.798 33.3874L61.5521 21.879L61.8136 18.6532L62.0752 15.8633L59.1109 20.6585L60.4187 21.4431L58.4135 22.1406L55.4492 34.0849Z" fill="#4B923D"/>
<path d="M57.8027 20.5723L59.0233 21.4441H60.4183L59.1105 20.6595L57.8027 20.5723Z" fill="#3C7731"/>
<path d="M57.1934 22.4903L59.0242 21.4441L57.8036 20.5723L57.1934 22.4903Z" fill="#3C7731"/>
<path d="M60.4199 9.32373L60.8558 14.1189L62.0764 15.8626L66.174 8.53906L60.4199 9.32373Z" fill="#529F42"/>
<path d="M43.5938 10.0215L54.7533 18.3041L62.0767 15.8629L43.5938 10.0215Z" fill="#4B923D"/>
<path d="M57.1934 22.4896L58.4139 22.1408L60.4192 21.4434H59.0242L57.1934 22.4896Z" fill="#2E6126"/>
<path d="M54.7539 18.3045L57.8053 20.5713L59.1131 20.6585L62.0773 15.8633L54.7539 18.3045Z" fill="#5CB24A"/>
<path d="M53.5312 29.6387L54.7518 29.4644L58.4135 22.1408L57.193 22.4896L57.8033 20.5715L54.7518 18.3047L53.5312 29.6387Z" fill="#529F42"/>
<path d="M56.4062 67.9141L57.3653 81.079L58.0627 71.0527L56.4062 67.9141Z" fill="#EDEDED"/>
<path d="M53.0078 48.7324L56.408 67.9131L58.0645 71.0518L57.8901 58.7587L53.0078 48.7324Z" fill="#DADADA"/>
<path d="M53.0078 46.9015V48.7324L57.8901 58.7587L53.7925 45.5938L53.0078 46.9015Z" fill="#DADADA"/>
<path d="M57.3672 81.0771L60.6802 70.0918L58.0647 71.0508L57.3672 81.0771Z" fill="white"/>
<path d="M57.8906 58.7592L58.065 71.0522L60.6805 70.0932L59.8958 56.7539L57.8906 58.7592Z" fill="white"/>
<path d="M57.3672 43.502L57.8903 58.7593L59.8955 56.7541L57.3672 43.502Z" fill="white"/>
<path d="M51.7871 47.1636L53.0077 46.9021L53.7923 45.5943L51.9615 45.4199L51.7871 47.1636Z" fill="#376F2D"/>
<path d="M57.3675 43.502L57.8906 58.7593L53.793 45.5944L57.3675 43.502Z" fill="#EDEDED"/>
</svg>
