<svg width="12" height="12" viewBox="0 0 12 12" fill="none" xmlns="http://www.w3.org/2000/svg">
<path d="M11.6667 4.66667C11.85 4.66667 12 4.51667 12 4.33333V3C12 2.81667 11.85 2.66667 11.6667 2.66667H9.73333L10 0.366667C10.0167 0.183333 9.88333 0.0166667 9.7 0C9.68333 0 9.66667 0 9.66667 0H8.33333C8.16667 0 8.01667 0.133333 8 0.3L7.71667 2.66667H5.05L5.33333 0.366667C5.35 0.183333 5.21667 0.0166667 5.03333 0C5.01667 0 5 0 5 0H3.66667C3.5 0 3.35 0.133333 3.33333 0.3L3.05 2.66667H0.333333C0.15 2.66667 0 2.81667 0 3V4.33333C0 4.51667 0.15 4.66667 0.333333 4.66667H2.81667L2.5 7.33333H0.333333C0.15 7.33333 0 7.48333 0 7.66667V9C0 9.18333 0.15 9.33333 0.333333 9.33333H2.26667L2 11.6333C1.98333 11.8167 2.11667 11.9833 2.3 12C2.31667 12 2.33333 12 2.33333 12H3.66667C3.83333 12 3.98333 11.8667 4 11.7L4.28333 9.33333H6.95L6.66667 11.6333C6.65 11.8167 6.78333 11.9833 6.96667 12C6.98333 12 7 12 7 12H8.33333C8.5 12 8.65 11.8667 8.66667 11.7L8.95 9.33333H11.6667C11.85 9.33333 12 9.18333 12 9V7.66667C12 7.48333 11.85 7.33333 11.6667 7.33333H9.18333L9.5 4.66667H11.6667ZM4.83333 4.66667H7.5L7.16667 7.33333H4.5L4.83333 4.66667Z" fill="white" fill-opacity="0.5"/>
</svg>
