<svg width="20" height="21" viewBox="0 0 20 21" fill="none" xmlns="http://www.w3.org/2000/svg">
<path d="M7 0.603516V2.60352H13V0.603516H15V2.60352H19C19.2652 2.60352 19.5196 2.70887 19.7071 2.89641C19.8946 3.08395 20 3.3383 20 3.60352V19.6035C20 19.8687 19.8946 20.1231 19.7071 20.3106C19.5196 20.4982 19.2652 20.6035 19 20.6035H1C0.734784 20.6035 0.48043 20.4982 0.292893 20.3106C0.105357 20.1231 0 19.8687 0 19.6035V3.60352C0 3.3383 0.105357 3.08395 0.292893 2.89641C0.48043 2.70887 0.734784 2.60352 1 2.60352H5V0.603516H7ZM18 9.60352H2V18.6035H18V9.60352ZM13.036 10.7395L14.45 12.1535L9.5 17.1035L5.964 13.5675L7.38 12.1535L9.501 14.2755L13.037 10.7395H13.036ZM5 4.60352H2V7.60352H18V4.60352H15V5.60352H13V4.60352H7V5.60352H5V4.60352Z" fill="black" fill-opacity="0.5"/>
</svg>
