<svg width="20" height="21" viewBox="0 0 20 21" fill="none" xmlns="http://www.w3.org/2000/svg">
<path d="M14 18.6035V2.60352H2V17.6035C2 17.8687 2.10536 18.1231 2.29289 18.3106C2.48043 18.4982 2.73478 18.6035 3 18.6035H14ZM17 20.6035H3C2.20435 20.6035 1.44129 20.2874 0.87868 19.7248C0.316071 19.1622 0 18.3992 0 17.6035V1.60352C0 1.3383 0.105357 1.08395 0.292893 0.896409C0.48043 0.708872 0.734784 0.603516 1 0.603516H15C15.2652 0.603516 15.5196 0.708872 15.7071 0.896409C15.8946 1.08395 16 1.3383 16 1.60352V8.60352H20V17.6035C20 18.3992 19.6839 19.1622 19.1213 19.7248C18.5587 20.2874 17.7956 20.6035 17 20.6035ZM16 10.6035V17.6035C16 17.8687 16.1054 18.1231 16.2929 18.3106C16.4804 18.4982 16.7348 18.6035 17 18.6035C17.2652 18.6035 17.5196 18.4982 17.7071 18.3106C17.8946 18.1231 18 17.8687 18 17.6035V10.6035H16ZM4 4.60352H10V10.6035H4V4.60352ZM6 6.60352V8.60352H8V6.60352H6ZM4 11.6035H12V13.6035H4V11.6035ZM4 14.6035H12V16.6035H4V14.6035Z" fill="black" fill-opacity="0.5"/>
</svg>
