<svg width="20" height="21" viewBox="0 0 20 21" fill="none" xmlns="http://www.w3.org/2000/svg">
<path d="M10 20.6035C4.477 20.6035 0 16.1265 0 10.6035C0 5.08052 4.477 0.603516 10 0.603516C15.523 0.603516 20 5.08052 20 10.6035C20 16.1265 15.523 20.6035 10 20.6035ZM10 18.6035C12.1217 18.6035 14.1566 17.7607 15.6569 16.2604C17.1571 14.7601 18 12.7252 18 10.6035C18 8.48178 17.1571 6.44695 15.6569 4.94666C14.1566 3.44637 12.1217 2.60352 10 2.60352C7.87827 2.60352 5.84344 3.44637 4.34315 4.94666C2.84285 6.44695 2 8.48178 2 10.6035C2 12.7252 2.84285 14.7601 4.34315 16.2604C5.84344 17.7607 7.87827 18.6035 10 18.6035ZM5 10.6035H7C7 11.3992 7.31607 12.1622 7.87868 12.7248C8.44129 13.2874 9.20435 13.6035 10 13.6035C10.7956 13.6035 11.5587 13.2874 12.1213 12.7248C12.6839 12.1622 13 11.3992 13 10.6035H15C15 11.9296 14.4732 13.2014 13.5355 14.139C12.5979 15.0767 11.3261 15.6035 10 15.6035C8.67392 15.6035 7.40215 15.0767 6.46447 14.139C5.52678 13.2014 5 11.9296 5 10.6035Z" fill="white" fill-opacity="0.5"/>
</svg>
