<svg width="20" height="19" viewBox="0 0 20 19" fill="none" xmlns="http://www.w3.org/2000/svg">
<path d="M2 2.60352V16.6035H18V2.60352H2ZM1 0.603516H19C19.2652 0.603516 19.5196 0.708872 19.7071 0.896409C19.8946 1.08395 20 1.3383 20 1.60352V17.6035C20 17.8687 19.8946 18.1231 19.7071 18.3106C19.5196 18.4982 19.2652 18.6035 19 18.6035H1C0.734784 18.6035 0.48043 18.4982 0.292893 18.3106C0.105357 18.1231 0 17.8687 0 17.6035V1.60352C0 1.3383 0.105357 1.08395 0.292893 0.896409C0.48043 0.708872 0.734784 0.603516 1 0.603516ZM12.793 7.39652L11 5.60352H16V10.6035L14.207 8.81052L10.343 12.6745L8.222 10.5535L5.393 13.3815L3.979 11.9675L8.222 7.72452L10.343 9.84652L12.793 7.39652Z" fill="white" fill-opacity="0.5"/>
</svg>
