<svg width="18" height="18" viewBox="0 0 18 18" fill="none" xmlns="http://www.w3.org/2000/svg">
<path d="M17.5 7C17.775 7 18 6.775 18 6.5V4.5C18 4.225 17.775 4 17.5 4H14.6L15 0.55C15.025 0.275 14.825 0.025 14.55 0C14.525 0 14.5 0 14.5 0H12.5C12.25 0 12.025 0.2 12 0.45L11.575 4H7.575L8 0.55C8.025 0.275 7.825 0.025 7.55 0C7.525 0 7.5 0 7.5 0H5.5C5.25 0 5.025 0.2 5 0.45L4.575 4H0.5C0.225 4 0 4.225 0 4.5V6.5C0 6.775 0.225 7 0.5 7H4.225L3.75 11H0.5C0.225 11 0 11.225 0 11.5V13.5C0 13.775 0.225 14 0.5 14H3.4L3 17.45C2.975 17.725 3.175 17.975 3.45 18C3.475 18 3.5 18 3.5 18H5.5C5.75 18 5.975 17.8 6 17.55L6.425 14H10.425L10 17.45C9.975 17.725 10.175 17.975 10.45 18C10.475 18 10.5 18 10.5 18H12.5C12.75 18 12.975 17.8 13 17.55L13.425 14H17.5C17.775 14 18 13.775 18 13.5V11.5C18 11.225 17.775 11 17.5 11H13.775L14.25 7H17.5ZM7.25 7H11.25L10.75 11H6.75L7.25 7Z" fill="white" fill-opacity="0.5"/>
</svg>
